<svg xmlns="http://www.w3.org/2000/svg" width="775" height="237" fill="none"><path stroke="#2E6AB3" stroke-dasharray="1.83 5.5" stroke-miterlimit="10" stroke-width="23.736" d="M225.05 118.593c0 58.62-47.522 106.141-106.14 106.141-58.62 0-106.14-47.521-106.14-106.141 0-58.62 47.52-106.14 106.14-106.14 58.618 0 106.14 47.52 106.14 106.14Z"/><path fill="#6D6F71" d="m159.453 21.393-.638.492-56.976 89.635-21.844 105.489 55.986-91.865 23.472-103.751Z"/><path fill="#F26A21" d="m135.981 125.143 23.472-103.75-.639.491-56.976 89.636"/><path fill="#fff" d="M127.432 119.748a8.864 8.864 0 0 1-8.864 8.864 8.864 8.864 0 1 1 0-17.728 8.864 8.864 0 0 1 8.864 8.864Z"/><path fill="#2E6AB3" d="M267.288 41.277h43.067v9.707h-32.04v16.302h31.381v9.707h-31.381v17.435h32.04v9.706h-43.067V41.277ZM350.219 75.674c0-7.068-3.582-9.424-9.14-9.424-5.09 0-9.424 3.015-11.687 6.126v31.758h-9.895V58.617h9.895v6.22c3.016-3.581 8.859-7.35 16.021-7.35 9.8 0 14.7 5.277 14.7 14.606v32.041h-9.894v-28.46ZM378.49 77.653h25.633c-.189-5.372-3.864-12.063-12.817-12.063-8.482 0-12.344 6.503-12.816 12.063Zm12.816-20.167c13.664 0 22.429 10.46 22.429 24.784v2.356h-35.151c.754 6.88 5.936 12.533 14.512 12.533 4.43 0 9.707-1.789 12.912-4.993l4.523 6.501c-4.523 4.336-11.215 6.598-18.471 6.598-13.664 0-23.842-9.519-23.842-23.938 0-13.192 9.612-23.84 23.088-23.84ZM421.652 58.617h9.895v6.69c3.392-4.334 8.857-7.726 14.796-7.726v9.8c-.849-.188-1.885-.283-3.111-.283-4.146 0-9.706 2.827-11.685 6.03v31.006h-9.895V58.617ZM484.414 72.376c-2.168-3.392-7.069-6.126-11.687-6.126-7.821 0-12.816 5.843-12.816 14.607s4.995 14.606 12.816 14.606c4.618 0 9.519-2.731 11.687-6.125V72.376Zm-27.895 36.281c3.675 4.241 8.387 5.843 14.419 5.843 6.503 0 13.476-3.015 13.476-12.346v-5.465c-3.487 4.524-8.671 7.54-14.608 7.54-11.591 0-20.167-8.388-20.167-23.372 0-14.701 8.482-23.37 20.167-23.37 5.748 0 10.932 2.638 14.608 7.444v-6.314h9.895v43.161c0 16.398-12.156 20.827-23.371 20.827-7.728 0-13.477-1.696-19.037-6.785l4.618-7.163ZM508.539 113.84c3.109 0 5.183-.942 6.501-3.957l2.263-5.184-18.66-46.081h10.555l13.288 34.113 13.288-34.113h10.648l-21.958 53.714c-3.109 7.728-8.574 10.178-15.642 10.274-1.415 0-4.147-.284-5.56-.66l1.508-8.859c1.036.471 2.637.753 3.769.753ZM599.478 50.983h-15.079v19.98h15.079c6.218 0 10.742-3.96 10.742-9.99 0-6.032-4.524-9.99-10.742-9.99Zm-26.104-9.706h27.612c13.192 0 20.542 9.047 20.542 19.696 0 10.65-7.444 19.696-20.542 19.696h-16.587v23.465h-11.025V41.277ZM660.827 81.328c0-8.01-4.712-15.079-13.195-15.079-8.387 0-13.099 7.07-13.099 15.079 0 8.105 4.712 15.172 13.099 15.172 8.483 0 13.195-7.067 13.195-15.172Zm-36.566 0c0-13.004 8.954-23.842 23.371-23.842 14.608 0 23.467 10.838 23.467 23.842 0 13.1-8.859 23.937-23.467 23.937-14.417 0-23.371-10.837-23.371-23.937ZM679.204 58.617h9.895v45.517h-9.895V58.617Zm-1.225-13.664c0-3.394 2.826-6.126 6.125-6.126a6.113 6.113 0 0 1 6.125 6.126 6.113 6.113 0 0 1-6.125 6.125c-3.299 0-6.125-2.734-6.125-6.126ZM730.753 75.674c0-7.068-3.583-9.424-9.142-9.424-5.089 0-9.424 3.015-11.685 6.126v31.758h-9.896V58.617h9.896v6.22c3.016-3.581 8.857-7.35 16.021-7.35 9.8 0 14.7 5.277 14.7 14.606v32.041h-9.894v-28.46ZM753.557 93.58V67.286h-7.538v-8.67h7.538v-12.44h9.896v12.44h9.236v8.67h-9.236v23.841c0 3.111 1.508 5.373 4.335 5.373 1.885 0 3.676-.755 4.429-1.603l2.356 7.445c-1.79 1.696-4.712 2.922-9.329 2.922-7.633 0-11.687-4.147-11.687-11.686ZM264.462 163.503c0-19.319 14.418-32.512 32.512-32.512 13.193 0 21.016 6.596 25.726 14.136l-9.424 4.805c-3.014-5.182-9.046-9.14-16.302-9.14-11.968 0-21.204 9.518-21.204 22.711 0 13.195 9.236 22.712 21.204 22.712 7.256 0 13.288-3.864 16.302-9.141l9.424 4.805c-4.805 7.54-12.533 14.136-25.726 14.136-18.094 0-32.512-13.193-32.512-32.512ZM363.129 172.079c0-8.011-4.712-15.079-13.193-15.079-8.387 0-13.099 7.068-13.099 15.079 0 8.105 4.712 15.173 13.099 15.173 8.481 0 13.193-7.068 13.193-15.173Zm-36.564 0c0-13.004 8.953-23.843 23.371-23.843 14.608 0 23.465 10.839 23.465 23.843 0 13.098-8.857 23.936-23.465 23.936-14.418 0-23.371-10.838-23.371-23.936ZM412.228 166.425c0-7.068-3.581-9.424-9.14-9.424-5.089 0-9.425 3.015-11.687 6.125v31.759h-9.894v-45.517h9.894v6.22c3.016-3.582 8.859-7.352 16.022-7.352 9.8 0 14.701 5.277 14.701 14.606v32.043h-9.896v-28.46ZM433.62 181.786c3.204 3.298 9.518 6.408 15.454 6.408 5.938 0 8.954-2.167 8.954-5.56 0-3.958-4.807-5.372-10.367-6.598-7.821-1.696-17.152-3.769-17.152-13.945 0-7.445 6.409-13.855 17.907-13.855 7.726 0 13.569 2.734 17.716 6.41l-4.147 6.973c-2.732-3.111-7.823-5.467-13.476-5.467-5.184 0-8.481 1.884-8.481 5.09 0 3.486 4.522 4.712 9.896 5.937 7.914 1.695 17.621 3.959 17.621 14.7 0 8.011-6.691 14.136-18.943 14.136-7.726 0-14.793-2.449-19.506-7.068l4.524-7.161ZM506.371 188.853c-3.299 3.676-8.953 7.162-16.115 7.162-9.801 0-14.606-5.088-14.606-14.418v-32.229h9.894v28.648c0 7.068 3.58 9.236 9.14 9.236 4.995 0 9.33-2.828 11.687-5.937v-31.947h9.895v45.516h-9.895v-6.031ZM527.196 132.027h9.896v62.858h-9.896v-62.858ZM550.003 184.33v-26.293h-7.539v-8.67h7.539v-12.44h9.896v12.44h9.236v8.67h-9.236v23.842c0 3.111 1.508 5.372 4.334 5.372 1.886 0 3.676-.753 4.43-1.602l2.356 7.445c-1.791 1.697-4.712 2.921-9.33 2.921-7.633 0-11.686-4.146-11.686-11.685ZM576.201 149.367h9.895v45.518h-9.895v-45.518Zm-1.225-13.665c0-3.392 2.828-6.124 6.125-6.124a6.113 6.113 0 0 1 6.126 6.124 6.114 6.114 0 0 1-6.126 6.126c-3.297 0-6.125-2.733-6.125-6.126ZM627.75 166.425c0-7.068-3.583-9.424-9.141-9.424-5.09 0-9.424 3.015-11.686 6.125v31.759h-9.896v-45.517h9.896v6.22c3.016-3.582 8.858-7.352 16.022-7.352 9.8 0 14.7 5.277 14.7 14.606v32.043h-9.895v-28.46ZM680.523 163.127c-2.168-3.394-7.069-6.127-11.686-6.127-7.822 0-12.816 5.843-12.816 14.607 0 8.765 4.994 14.608 12.816 14.608 4.617 0 9.518-2.732 11.686-6.126v-16.962Zm-27.894 36.281c3.674 4.241 8.386 5.843 14.418 5.843 6.503 0 13.476-3.016 13.476-12.346v-5.466c-3.486 4.524-8.67 7.54-14.608 7.54-11.59 0-20.166-8.387-20.166-23.372 0-14.7 8.481-23.371 20.166-23.371 5.748 0 10.932 2.64 14.608 7.445v-6.313h9.895v43.161c0 16.398-12.156 20.827-23.371 20.827-7.728 0-13.477-1.697-19.037-6.787l4.619-7.161Z"/></svg>