
              <svg width="24" height="24" viewBox="0 0 24 24">
                <path
                  fill="white"
                  d="M11.9964 5.355C11.9974 5.355 11.9984 5.356 11.9994 5.356C12.0004 5.356 12.0014 5.355 12.0024 5.355C13.1494 5.357 14.0824 6.29 14.0824 7.438C14.0824 8.586 13.1484 9.52 11.9994 9.52C11.7294 9.52 11.4714 9.464 11.2344 9.37C11.2324 9.369 11.2314 9.367 11.2294 9.366C11.2254 9.365 11.2204 9.366 11.2164 9.364C10.4554 9.054 9.91642 8.309 9.91642 7.438C9.91642 6.29 10.8494 5.357 11.9964 5.355ZM20.9034 11.824C20.4364 11.532 19.8194 11.673 19.5254 12.141C17.8904 14.753 15.0764 16.313 11.9994 16.313C11.2184 16.313 10.4544 16.21 9.72242 16.018L11.4874 11.468C11.6564 11.49 11.8244 11.52 11.9994 11.52C12.1974 11.52 12.3864 11.489 12.5774 11.461L13.5294 13.917C13.6824 14.314 14.0614 14.556 14.4614 14.556C14.5814 14.556 14.7034 14.534 14.8224 14.489C15.3374 14.289 15.5934 13.709 15.3944 13.195L14.4274 10.701C15.4264 9.956 16.0824 8.776 16.0824 7.438C16.0824 5.533 14.7664 3.942 12.9994 3.493V3C12.9994 2.448 12.5524 2 11.9994 2C11.4474 2 10.9994 2.448 10.9994 3V3.493C9.23342 3.942 7.91642 5.533 7.91642 7.438C7.91642 8.8 8.59442 10.001 9.62242 10.743L7.86142 15.285C6.50042 14.568 5.32542 13.501 4.47442 12.141C4.18242 11.674 3.56642 11.529 3.09642 11.824C2.62842 12.116 2.48642 12.734 2.77942 13.202C3.86342 14.936 5.38142 16.275 7.13742 17.153L5.78542 20.637C5.58642 21.152 5.84142 21.732 6.35742 21.931C6.47542 21.977 6.59842 21.999 6.71842 21.999C7.11842 21.999 7.49642 21.757 7.65142 21.36L8.99942 17.883C9.96142 18.157 10.9654 18.313 11.9994 18.313C13.0544 18.313 14.0794 18.148 15.0584 17.863L16.4144 21.361C16.5684 21.758 16.9474 22 17.3474 22C17.4674 22 17.5894 21.978 17.7084 21.932C18.2234 21.733 18.4794 21.153 18.2804 20.638L16.9184 17.126C18.6494 16.247 20.1464 14.918 21.2204 13.202C21.5134 12.734 21.3714 12.117 20.9034 11.824Z"
                ></path>
              </svg>