<svg width="134" height="101" viewBox="0 0 134 101" fill="none" xmlns="http://www.w3.org/2000/svg">
<path fill-rule="evenodd" clip-rule="evenodd" d="M14.1816 9.20367H119.737L66.9594 54.8401L14.1816 9.20367ZM122.533 92.6662C123.149 92.6643 123.739 92.4173 124.173 91.9805C124.608 91.5427 124.85 90.9514 124.848 90.3344V15.7198L69.6633 63.4315C68.9155 64.0858 67.9552 64.4472 66.9615 64.4472C65.9678 64.4472 65.0074 64.0858 64.2597 63.4315L9.07462 15.7198V90.3344C9.07366 90.9514 9.31877 91.5437 9.75558 91.9805C10.1914 92.4163 10.7837 92.6614 11.4007 92.6605L122.533 92.6662ZM11.4008 100.938H122.523C125.334 100.936 128.029 99.8181 130.016 97.8297C132.003 95.8412 133.119 93.146 133.119 90.3346V11.5353C133.114 8.7266 131.996 6.03339 130.01 4.04772C128.024 2.06115 125.332 0.94336 122.523 0.937744H11.4008C8.59208 0.942513 5.89887 2.06122 3.9132 4.04674C1.92758 6.03332 0.809815 8.72563 0.805176 11.5353V90.3346C0.805176 93.1462 1.92101 95.8414 3.90758 97.8297C5.89511 99.8182 8.59037 100.936 11.4008 100.938Z" fill="black"/>
</svg>
