<svg width="654" height="701" viewBox="0 0 654 701" fill="none" xmlns="http://www.w3.org/2000/svg">
<path d="M222.256 583.794H210.589V502.711C210.594 500.664 210.058 498.654 209.037 496.878L128.397 357.251C127.902 356.397 127.355 355.569 126.767 354.777C119.215 343.642 107.261 336.261 93.9227 334.512V233.793C93.9227 217.121 85.0268 201.714 70.5894 193.377C56.152 185.044 38.36 185.044 23.9227 193.377C9.48536 201.716 0.589355 217.122 0.589355 233.793V513.793C0.589355 516.444 1.49039 519.017 3.14669 521.085L47.256 576.221V583.794H35.5894C29.1467 583.794 23.9227 589.018 23.9227 595.461V688.794C23.9227 691.888 25.1519 694.856 27.3394 697.044C29.5268 699.231 32.4956 700.461 35.5894 700.461H222.256C225.35 700.461 228.319 699.231 230.506 697.044C232.694 694.856 233.923 691.888 233.923 688.794V595.461C233.923 592.367 232.694 589.398 230.506 587.211C228.319 585.023 225.349 583.794 222.256 583.794ZM68.0291 564.835L23.9198 509.699V233.792C23.9198 225.454 28.3676 217.751 35.5864 213.584C42.8052 209.418 51.7011 209.418 58.9198 213.584C66.1384 217.751 70.5864 225.454 70.5864 233.792V337.683C68.5864 338.454 66.6386 339.35 64.7531 340.365C54.0604 346.584 46.2638 356.777 43.0558 368.72C39.8527 380.668 41.5036 393.392 47.6495 404.127L114.384 519.627L134.592 507.96L67.8575 392.46C64.7846 387.106 63.9512 380.757 65.5346 374.793C67.1179 368.83 70.993 363.731 76.3158 360.611C78.6543 359.246 81.2324 358.33 83.9095 357.913C84.3053 357.856 87.571 357.444 88.0866 357.444V357.449C92.2324 357.444 96.2948 358.574 99.847 360.715C102.925 362.46 105.54 364.918 107.467 367.892C107.691 368.22 108.071 368.814 108.321 369.116L187.253 505.823V583.792H70.5862V572.125C70.5862 569.474 69.6851 566.901 68.0289 564.834L68.0291 564.835ZM210.589 677.127H47.2558V607.127H210.589V677.127Z" fill="white"/>
<path d="M163.922 630.46H187.256V653.794H163.922V630.46Z" fill="white"/>
<path d="M607.255 187.127C594.88 187.127 583.01 192.044 574.255 200.794C565.505 209.549 560.589 221.419 560.589 233.794V334.512C554.443 335.257 548.516 337.268 543.182 340.414C536.989 343.924 531.703 348.841 527.761 354.768C527.115 355.628 526.521 356.529 525.985 357.461L445.485 496.888C444.464 498.664 443.933 500.674 443.933 502.721V583.794H432.256C425.813 583.794 420.589 589.018 420.589 595.461V688.794C420.589 691.888 421.818 694.857 424.006 697.044C426.193 699.232 429.162 700.461 432.256 700.461H618.922C622.016 700.461 624.985 699.232 627.172 697.044C629.36 694.857 630.589 691.888 630.589 688.794V595.461C630.589 592.367 629.36 589.398 627.172 587.211C624.985 585.023 622.016 583.794 618.922 583.794H607.256V576.221L651.365 521.085C653.021 519.018 653.922 516.445 653.922 513.794V233.794C653.922 221.419 649.006 209.548 640.256 200.794C631.5 192.044 619.63 187.127 607.255 187.127ZM607.255 677.127H443.922V607.127H607.255V677.127ZM630.589 509.7L586.479 564.837C584.823 566.904 583.922 569.477 583.922 572.128V583.795H467.255V505.826L546.343 368.852C546.599 368.54 546.823 368.222 547.041 367.894V367.899C551.395 361.446 558.64 357.545 566.421 357.456C566.937 357.456 570.203 357.863 570.588 357.925C573.218 358.326 575.755 359.217 578.067 360.55C583.416 363.654 587.322 368.758 588.932 374.733C590.536 380.712 589.713 387.082 586.64 392.457L519.916 507.957L540.124 519.624L606.859 404.124C613.937 392.514 615.468 378.353 611.031 365.504C606.593 352.649 596.656 342.452 583.921 337.681V233.79C583.921 225.452 588.369 217.749 595.588 213.582C602.807 209.416 611.703 209.416 618.921 213.582C626.14 217.749 630.588 225.452 630.588 233.79L630.589 509.7Z" fill="white"/>
<path d="M467.256 630.46H490.589V653.794H467.256V630.46Z" fill="white"/>
<path d="M173.936 198.674L205.228 203.143C207.342 209.716 209.988 216.111 213.134 222.263L194.186 247.533H194.191C190.707 252.179 191.17 258.674 195.275 262.779L228.269 295.773C232.373 299.877 238.868 300.341 243.514 296.857L268.785 277.909V277.914C274.936 281.06 281.332 283.706 287.905 285.82L292.374 317.112C293.202 322.857 298.124 327.123 303.926 327.123H350.593C356.395 327.123 361.317 322.857 362.145 317.112L366.614 285.82C373.192 283.711 379.583 281.065 385.734 277.914L411.015 296.862V296.857C415.656 300.336 422.151 299.872 426.25 295.773L459.244 262.779C463.349 258.674 463.812 252.18 460.328 247.533L441.369 222.263C444.531 216.117 447.176 209.721 449.291 203.143L480.583 198.674C486.328 197.846 490.593 192.924 490.593 187.122V140.455C490.593 134.653 486.328 129.731 480.583 128.903L449.291 124.434C447.176 117.856 444.531 111.46 441.369 105.314L460.328 80.0434C463.812 75.3975 463.349 68.9027 459.244 64.7981L426.25 31.8034C422.151 27.7045 415.656 27.2409 411.015 30.7201L385.734 49.6627C379.583 46.5117 373.192 43.8658 366.614 41.7565L362.145 10.4645C361.317 4.71965 356.395 0.454056 350.593 0.454056H303.926C298.124 0.454056 293.202 4.71965 292.374 10.4645L287.905 41.7565C281.332 43.871 274.936 46.5169 268.785 49.6627L243.514 30.7201C238.869 27.2357 232.374 27.6993 228.269 31.8034L195.275 64.7981C191.17 68.9022 190.707 75.397 194.191 80.0434L213.139 105.314H213.134C209.988 111.465 207.342 117.861 205.228 124.434L173.936 128.903C168.191 129.731 163.925 134.653 163.925 140.455V187.122C163.925 192.924 168.191 197.846 173.936 198.674ZM187.259 150.57L215.993 146.466C220.67 145.799 224.488 142.372 225.655 137.794C228.108 128.132 231.936 118.876 237.03 110.31C239.441 106.247 239.165 101.128 236.327 97.3462L218.92 74.1275L237.587 55.4609L260.805 72.8675V72.8727C264.586 75.7061 269.701 75.9873 273.769 73.5707C282.337 68.4769 291.592 64.6488 301.253 62.1957C305.831 61.029 309.253 57.2165 309.92 52.5343L314.039 23.7889H340.477L344.57 52.5236C345.237 57.2059 348.669 61.0236 353.253 62.1851C362.914 64.6329 372.174 68.4611 380.737 73.56C384.799 75.9663 389.908 75.6902 393.69 72.8569L416.919 55.4502L435.586 74.1169L418.179 97.3355H418.174C415.335 101.112 415.054 106.231 417.465 110.299C422.559 118.872 426.398 128.132 428.861 137.794C430.033 142.367 433.841 145.783 438.512 146.45L467.258 150.57V177.007L438.523 181.111C433.851 181.783 430.044 185.2 428.872 189.768C426.414 199.434 422.575 208.694 417.476 217.268C415.065 221.335 415.346 226.455 418.19 230.231L435.596 253.45L416.93 272.116L393.7 254.71V254.705C389.924 251.876 384.81 251.6 380.747 254.007C372.185 259.106 362.925 262.934 353.263 265.382C348.68 266.543 345.253 270.361 344.581 275.043L340.477 303.788H314.04L309.935 275.054C309.269 270.377 305.842 266.559 301.264 265.392C291.602 262.939 282.346 259.111 273.78 254.017C269.717 251.606 264.597 251.882 260.816 254.72L237.597 272.127L218.931 253.46L236.337 230.242H236.342C239.176 226.461 239.457 221.346 237.04 217.278C231.947 208.71 228.119 199.456 225.665 189.794C224.499 185.216 220.686 181.794 216.004 181.128L187.259 177.008L187.259 150.57Z" fill="white"/>
<path d="M327.256 233.794C345.824 233.794 363.625 226.419 376.756 213.294C389.881 200.164 397.256 182.362 397.256 163.794C397.256 145.226 389.881 127.424 376.756 114.294C363.625 101.169 345.824 93.7938 327.256 93.7938C308.688 93.7938 290.886 101.169 277.756 114.294C264.631 127.424 257.256 145.226 257.256 163.794C257.276 182.351 264.657 200.148 277.777 213.272C290.902 226.392 308.698 233.772 327.256 233.794ZM327.256 117.127C339.631 117.127 351.501 122.044 360.256 130.794C369.006 139.549 373.922 151.419 373.922 163.794C373.922 176.168 369.006 188.039 360.256 196.794C351.5 205.544 339.63 210.46 327.256 210.46C314.881 210.46 303.01 205.544 294.256 196.794C285.506 188.039 280.589 176.168 280.589 163.794C280.589 151.419 285.506 139.548 294.256 130.794C303.011 122.044 314.881 117.127 327.256 117.127Z" fill="white"/>
<path d="M315.589 47.1271H338.922V70.4605H315.589V47.1271Z" fill="white"/>
<path d="M236.509 89.5485L253.009 73.0485L269.509 89.5485L253.009 106.048L236.509 89.5485Z" fill="white"/>
<path d="M210.589 152.127H233.922V175.46H210.589V152.127Z" fill="white"/>
<path d="M236.509 238.047L253.009 221.547L269.509 238.047L253.009 254.547L236.509 238.047Z" fill="white"/>
<path d="M315.589 257.127H338.922V280.46H315.589V257.127Z" fill="white"/>
<path d="M385.002 238.034L401.502 221.539L417.997 238.039L401.497 254.534L385.002 238.034Z" fill="white"/>
<path d="M420.589 152.127H443.922V175.46H420.589V152.127Z" fill="white"/>
<path d="M385.002 89.5485L401.502 73.0485L418.002 89.5485L401.502 106.048L385.002 89.5485Z" fill="white"/>
<path d="M537.256 93.7938C537.256 87.3511 542.48 82.1271 548.922 82.1271H614.094L599.012 97.2098L615.506 113.704L650.506 78.7044V78.7097C655.058 74.1523 655.058 66.767 650.506 62.2097L615.506 27.2097L599.006 43.7097L614.094 58.7923H548.922C539.641 58.7923 530.734 62.4798 524.173 69.0423C517.612 75.6049 513.923 84.5117 513.923 93.7917V210.458H537.256L537.256 93.7938Z" fill="white"/>
<path d="M513.922 233.794H537.256V257.127H513.922V233.794Z" fill="white"/>
<path d="M513.922 280.46H537.256V303.794H513.922V280.46Z" fill="white"/>
<path d="M560.589 105.46H583.922V128.794H560.589V105.46Z" fill="white"/>
<path d="M560.589 152.127H583.922V175.46H560.589V152.127Z" fill="white"/>
<path d="M39.0023 113.714L55.497 97.2191L40.4143 82.1311H105.586C108.68 82.1311 111.649 83.3603 113.836 85.5478C116.024 87.7353 117.253 90.7041 117.253 93.7978V210.464H140.586V93.7978C140.586 84.5166 136.899 75.6098 130.336 69.0485C123.774 62.4871 114.867 58.7985 105.587 58.7985H40.415L55.503 43.7158L39.003 27.2158L4.00297 62.2158C-0.549166 66.7731 -0.549166 74.1585 4.00297 78.7158L39.0023 113.714Z" fill="white"/>
<path d="M117.256 233.794H140.589V257.127H117.256V233.794Z" fill="white"/>
<path d="M117.256 280.46H140.589V303.794H117.256V280.46Z" fill="white"/>
<path d="M70.5889 105.46H93.9222V128.794H70.5889V105.46Z" fill="white"/>
<path d="M70.5889 152.127H93.9222V175.46H70.5889V152.127Z" fill="white"/>
<path d="M260.669 353.874L225.669 388.874L242.164 405.368L257.252 390.286V478.791H280.585V390.286L295.668 405.368L312.162 388.874L277.162 353.874H277.167C272.61 349.322 265.225 349.322 260.667 353.874H260.669Z" fill="white"/>
<path d="M257.256 502.127H280.589V525.46H257.256V502.127Z" fill="white"/>
<path d="M257.256 548.794H280.589V572.127H257.256V548.794Z" fill="white"/>
<path d="M428.842 388.874L393.842 353.874C389.285 349.322 381.9 349.322 377.342 353.874L342.342 388.874L358.837 405.368L373.925 390.286V478.791H397.258V390.286L412.341 405.368L428.842 388.874Z" fill="white"/>
<path d="M373.922 502.127H397.256V525.46H373.922V502.127Z" fill="white"/>
<path d="M373.922 548.794H397.256V572.127H373.922V548.794Z" fill="white"/>
</svg>
