<svg width="409" height="640" viewBox="0 0 409 640" fill="none" xmlns="http://www.w3.org/2000/svg">
<path d="M164.371 81.9574C160.626 81.9574 157.585 78.921 157.585 75.171L157.58 7.29104C157.58 3.54624 160.616 0.504639 164.366 0.504639C168.111 0.504639 171.152 3.54104 171.152 7.29104L171.158 75.171C171.158 78.9158 168.121 81.9574 164.371 81.9574Z" fill="white"/>
<path d="M164.371 217.717C123.199 217.717 89.7046 184.223 89.7046 143.051C89.7046 101.879 123.199 68.3841 164.371 68.3841C205.543 68.3841 239.038 101.879 239.038 143.051C239.038 184.223 205.543 217.717 164.371 217.717ZM164.371 81.9574C130.683 81.9574 103.283 109.359 103.283 143.045C103.283 176.732 130.685 204.133 164.371 204.133C198.058 204.133 225.459 176.732 225.459 143.045C225.459 109.363 198.058 81.9574 164.371 81.9574Z" fill="white"/>
<path d="M30.7177 577.464C30.0302 577.464 29.348 577.36 28.6761 577.152C26.9573 576.61 25.525 575.407 24.6969 573.813L6.91023 539.734C6.08211 538.146 5.91545 536.287 6.4519 534.578L111.665 197.765C112.78 194.197 116.556 192.181 120.155 193.301L168.212 208.228C171.051 209.108 172.983 211.733 172.983 214.712C172.983 216.728 172.092 218.593 170.629 219.848L172.665 226.223C173.087 227.551 173.087 228.973 172.67 230.306L71.2638 554.906C70.7273 556.635 69.5294 558.067 67.9252 558.901L33.8466 576.687C32.8778 577.198 31.7944 577.458 30.7163 577.458L30.7177 577.464ZM20.2489 535.937L33.5929 561.511L59.1556 548.172L159.082 228.305L156.004 218.649L122.603 208.274L20.2489 535.937Z" fill="white"/>
<path d="M301.558 577.464C300.48 577.464 299.402 577.204 298.423 576.693L264.344 558.907C262.74 558.073 261.542 556.631 260.995 554.912L159.719 230.312C159.313 229.005 159.308 227.598 159.714 226.286L161.714 219.801C160.276 218.536 159.406 216.682 159.412 214.676C159.427 211.718 161.354 209.109 164.177 208.228L212.104 193.302C215.703 192.213 219.489 194.192 220.604 197.765L325.817 534.579C326.354 536.287 326.187 538.146 325.359 539.735L307.572 573.814C306.744 575.413 305.312 576.611 303.593 577.152C302.926 577.361 302.244 577.47 301.557 577.47L301.558 577.464ZM273.121 548.177L298.683 561.516L312.027 535.943L209.678 208.289L176.266 218.696L173.308 228.279L273.121 548.177Z" fill="white"/>
<path d="M7.58456 639.331C6.81374 639.331 6.03243 639.201 5.26683 638.919C1.74603 637.638 -0.0768988 633.742 1.2095 630.221L26.1735 561.581C27.4599 558.061 31.3506 556.264 34.8714 557.524C38.3922 558.805 40.2151 562.701 38.9287 566.222L13.9647 634.862C12.9595 637.622 10.3555 639.331 7.58456 639.331Z" fill="white"/>
<path d="M327.278 638.571C324.632 638.571 322.116 637.013 321.023 634.415L295.299 573.295C293.846 569.841 295.465 565.862 298.924 564.404C302.335 562.972 306.361 564.565 307.814 568.029L333.538 629.149C334.991 632.602 333.372 636.581 329.913 638.04C329.059 638.399 328.163 638.571 327.278 638.571Z" fill="white"/>
<path d="M164.344 407.917C146.99 407.917 129.662 406.193 112.459 402.74C108.787 402.006 106.407 398.423 107.141 394.746C107.886 391.074 111.443 388.647 115.136 389.428C148.829 396.194 183.068 395.964 216.923 388.756C220.584 387.996 224.183 390.308 224.975 393.985C225.751 397.652 223.412 401.256 219.746 402.037C201.35 405.964 182.828 407.917 164.344 407.917Z" fill="white"/>
<path d="M269.931 385.224C267.332 385.224 264.853 383.724 263.728 381.209C262.197 377.781 263.734 373.771 267.155 372.24C325.338 346.25 371.01 299.542 395.759 240.729C397.218 237.26 401.197 235.667 404.65 237.104C408.103 238.562 409.728 242.541 408.275 245.995C382.187 308 334.03 357.235 272.702 384.635C271.796 385.036 270.853 385.223 269.936 385.223L269.931 385.224Z" fill="white"/>
</svg>
