<svg width="201" height="258" viewBox="0 0 201 258" fill="none" xmlns="http://www.w3.org/2000/svg">
<path d="M199.082 33.0696L168.02 2.00586C167.242 1.22858 166.19 0.793411 165.091 0.793411H4.43582C2.14778 0.793411 0.294922 2.64628 0.294922 4.93432V253.422C0.294922 255.71 2.14778 257.563 4.43582 257.563H196.154C198.442 257.563 200.295 255.71 200.295 253.422V36.0019C200.295 34.9035 199.858 33.8469 199.081 33.0735L199.082 33.0696ZM169.233 14.9325L186.155 31.8553H169.233V14.9325ZM8.57712 249.277V9.07512H160.952V35.9958C160.952 38.2839 162.805 40.1368 165.093 40.1368H192.014V249.276L8.576 249.274L8.57712 249.277ZM47.1587 181.441H27.7825C25.4945 181.441 23.6416 183.293 23.6416 185.581V212.531C23.6416 214.819 25.4945 216.672 27.7825 216.672H47.1587C49.4467 216.672 51.2996 214.819 51.2996 212.531V185.581C51.2996 183.295 49.4448 181.441 47.1587 181.441ZM43.0177 208.391H31.9213V189.724H43.0177V208.391ZM172.81 123.853H153.434C151.146 123.853 149.293 125.706 149.293 127.994V212.527C149.293 214.815 151.146 216.668 153.434 216.668H172.81C175.098 216.668 176.951 214.815 176.951 212.527L176.949 127.999C176.953 125.711 175.096 123.854 172.81 123.854V123.853ZM168.669 208.391H157.573V132.143H168.669V208.391ZM89.0443 162.246H69.6681C67.3801 162.246 65.5272 164.099 65.5272 166.387V212.532C65.5272 214.82 67.3801 216.673 69.6681 216.673H89.0443C91.3323 216.673 93.1852 214.82 93.1852 212.532V166.387C93.1852 164.099 91.3323 162.246 89.0443 162.246ZM84.9015 208.391H73.805V170.528H84.9015V208.391ZM130.928 143.05H111.552C109.264 143.05 107.411 144.903 107.411 147.191V212.532C107.411 214.82 109.264 216.673 111.552 216.673H130.928C133.216 216.673 135.069 214.82 135.069 212.532V147.191C135.069 144.905 133.213 143.05 130.928 143.05ZM126.786 208.391H115.689V151.335H126.786V208.391ZM99.2489 54.9604C99.2489 33.7901 82.026 16.5633 60.8556 16.5633C39.6833 16.5652 22.4585 33.7901 22.4585 54.9604C22.4585 76.1308 39.6814 93.3537 60.8517 93.3537C82.0221 93.3556 99.2489 76.1327 99.2489 54.9604ZM90.6764 50.8328L64.9967 50.8214V25.1417C78.2975 26.9775 88.8447 37.5301 90.6764 50.8328ZM30.7401 54.9604C30.7401 39.7613 42.0609 27.1655 56.7088 25.1397V54.9604C56.7088 55.6978 56.9045 56.4218 57.2789 57.0603L72.3904 82.7687C68.8348 84.251 64.9353 85.0739 60.8493 85.0739C44.2476 85.0739 30.7396 71.5624 30.7396 54.9608L30.7401 54.9604ZM79.5259 78.5555L68.0913 59.1054L90.6696 59.1168C89.5825 66.9635 85.4587 73.8501 79.5259 78.5555ZM102.946 110.919C102.946 113.207 101.093 115.06 98.8054 115.06H66.7156C64.4276 115.06 62.5747 113.207 62.5747 110.919C62.5747 108.631 64.4276 106.778 66.7156 106.778H98.8073C101.093 106.778 102.946 108.631 102.946 110.919ZM23.6378 110.919C23.6378 108.631 25.4906 106.778 27.7787 106.778H42.59C44.8781 106.778 46.7309 108.631 46.7309 110.919C46.7309 113.207 44.8781 115.06 42.59 115.06H27.7787C25.4944 115.061 23.6378 113.207 23.6378 110.919ZM102.946 129.516C102.946 131.804 101.093 133.657 98.8054 133.657L66.7156 133.655C64.4276 133.655 62.5747 131.802 62.5747 129.514C62.5747 127.226 64.4276 125.373 66.7156 125.373H98.8073C101.093 125.375 102.946 127.228 102.946 129.516ZM23.6378 129.516C23.6378 127.228 25.4906 125.375 27.7787 125.375H42.59C44.8781 125.375 46.7309 127.228 46.7309 129.516C46.7309 131.804 44.8781 133.657 42.59 133.657H27.7787C25.4944 133.659 23.6378 131.802 23.6378 129.516Z" fill="white"/>
</svg>
