<svg width="271" height="300" viewBox="0 0 271 300" fill="none" xmlns="http://www.w3.org/2000/svg">
<path d="M25.7371 231.41C22.6114 229.809 18.7783 231.038 17.1676 234.159V234.161C15.9907 236.448 16.31 239.222 17.9752 241.185C19.6405 243.146 22.323 243.913 24.7724 243.126C27.2215 242.34 28.9582 240.156 29.1678 237.59C29.3799 235.026 28.0266 232.587 25.7371 231.41Z" fill="white"/>
<path d="M41.9538 241.857C39.5047 242.643 37.7703 244.828 37.5583 247.394C37.3463 249.959 38.7019 252.399 40.9913 253.576C43.2784 254.753 46.0515 254.436 48.0148 252.773C49.9802 251.11 50.7497 248.428 49.9659 245.976C49.4489 244.368 48.3149 243.029 46.814 242.257C45.3108 241.483 43.5643 241.34 41.9538 241.857Z" fill="white"/>
<path d="M131.266 142.208C132.261 143.411 133.734 144.119 135.294 144.142C136.855 144.169 138.348 143.509 139.382 142.339C140.957 140.555 178.041 98.382 184.985 78.0326C193.014 54.5069 191.489 35.2833 180.452 20.896C167.873 4.49805 145.914 -0.459715 135.022 0.272148C114.453 1.64915 99.4466 9.17038 90.4221 22.6306C79.9613 38.2278 80.09 59.5951 84.8545 73.8512C91.6254 94.1037 129.65 140.256 131.266 142.207L131.266 142.208ZM99.2868 28.574C106.374 18.0034 118.638 12.0644 135.737 10.9208C146.691 10.1871 163.358 16.1501 171.983 27.3926C180.711 38.7731 181.688 54.649 174.884 74.5874C170.277 88.086 147.759 116.155 135.509 130.511C122.964 114.897 99.533 84.0931 94.9778 70.4707C92.038 61.6773 89.6389 42.9618 99.2875 28.5746L99.2868 28.574Z" fill="white"/>
<path d="M267.697 185.028C162.248 138.036 181.441 146.694 162.12 137.709V137.707C160.836 137.109 159.366 137.047 158.036 137.531C156.707 138.017 155.623 139.01 155.027 140.294C154.429 141.578 154.368 143.048 154.853 144.378C155.34 145.707 156.335 146.789 157.619 147.384L161.722 149.292L135.909 162.555L109.003 148.733L113.177 146.777V146.774C114.458 146.176 115.452 145.09 115.933 143.758C116.417 142.426 116.35 140.959 115.75 139.677C115.147 138.393 114.061 137.402 112.729 136.921C111.397 136.44 109.93 136.509 108.648 137.111L3.88165 185.092C1.98527 185.967 0.767878 187.861 0.760742 189.948V227.796C0.760742 230.743 3.15027 233.133 6.09724 233.133C9.04421 233.133 11.4337 230.743 11.4337 227.796V198.688L129.069 259.122V284.971L66.5308 252.844V252.842C65.2729 252.196 63.8078 252.075 62.4594 252.506C61.111 252.94 59.9912 253.89 59.3432 255.151C58.6976 256.408 58.5761 257.874 59.0097 259.222C59.4433 260.57 60.3938 261.69 61.6541 262.336L131.968 298.458H131.97C133.485 299.227 135.279 299.237 136.802 298.481L268.025 232.565V232.563C269.828 231.657 270.967 229.813 270.967 227.795V189.946C270.955 187.802 269.671 185.868 267.701 185.027L267.697 185.028ZM134.431 249.877L104.099 234.294L135.989 217.911L166.615 233.71L134.431 249.877ZM61.8545 212.593L93.8357 196.164L124.332 211.897L92.4159 228.293L61.8545 212.593ZM174.019 154.969L206.752 169.556L178.14 184.255L147.577 168.553L174.019 154.969ZM135.898 174.551L166.462 190.253L135.993 205.906L105.494 190.17L135.898 174.551ZM178.402 227.785L147.645 211.918L178.137 196.254L209.301 212.264L178.402 227.785ZM221.113 206.332L189.818 190.253L219.259 175.128L253.158 190.235L221.113 206.332ZM124.22 168.553L93.8424 184.159L64.6392 169.093L96.7485 154.44L124.22 168.553ZM52.2842 174.73L82.1759 190.151L50.1709 206.594L18.3166 190.23L52.2842 174.73ZM139.73 285.058V259.155L260.28 198.6V224.503L139.73 285.058Z" fill="white"/>
<path d="M135.864 77.5051C141.772 77.5051 147.438 75.1584 151.616 70.9824C155.795 66.8037 158.142 61.1382 158.142 55.2302C158.142 49.3223 155.795 43.6546 151.616 39.4757C147.44 35.2994 141.772 32.9529 135.864 32.9529C129.956 32.9529 124.29 35.2996 120.112 39.4757C115.933 43.6544 113.587 49.3198 113.587 55.2278C113.594 61.1361 115.943 66.7967 120.119 70.9726C124.296 75.1489 129.959 77.5002 135.864 77.5051ZM135.864 43.6253C138.942 43.6253 141.894 44.8474 144.069 47.0225C146.246 49.2 147.469 52.1518 147.469 55.2273C147.469 58.3054 146.246 61.2571 144.069 63.4345C141.894 65.6096 138.942 66.8318 135.864 66.8318C132.786 66.8318 129.834 65.6096 127.659 63.4345C125.482 61.2571 124.26 58.3053 124.26 55.2273C124.265 52.1517 125.487 49.2023 127.662 47.0274C129.839 44.8523 132.789 43.6277 135.864 43.6253Z" fill="white"/>
</svg>
