<svg width="357" height="357" viewBox="0 0 357 357" fill="none" xmlns="http://www.w3.org/2000/svg">
<path d="M178.405 184.622C186.274 184.622 193.82 181.496 199.387 175.933C204.95 170.367 208.076 162.82 208.076 154.952C208.076 147.083 204.95 139.537 199.387 133.97C193.821 128.407 186.274 125.281 178.405 125.281C170.537 125.281 162.99 128.407 157.424 133.97C151.861 139.536 148.735 147.083 148.735 154.952C148.745 162.817 151.874 170.359 157.435 175.922C162.998 181.483 170.54 184.611 178.405 184.622ZM178.405 137.149C183.126 137.149 187.656 139.025 190.994 142.363C194.331 145.701 196.207 150.231 196.207 154.951C196.207 159.671 194.332 164.202 190.994 167.54C187.656 170.877 183.126 172.753 178.405 172.753C173.685 172.753 169.154 170.878 165.817 167.54C162.48 164.202 160.603 159.671 160.603 154.951C160.603 150.231 162.479 145.7 165.817 142.363C169.155 139.026 173.685 137.149 178.405 137.149Z" fill="white"/>
<path d="M126.28 135.861C125.912 136.934 125.568 138.038 125.247 139.191L117.053 142.804C115.114 143.66 113.779 145.485 113.551 147.591C112.989 152.482 112.989 157.419 113.551 162.31C113.779 164.416 115.114 166.241 117.053 167.097L125.247 170.71C125.568 171.857 125.912 172.965 126.28 174.032L121.724 181.901V181.903C120.672 183.715 120.653 185.946 121.676 187.771C124.074 192.055 126.937 196.058 130.214 199.711C131.653 201.321 133.854 202.021 135.958 201.538L144.573 199.562C145.423 200.227 146.295 200.871 147.185 201.491L148.022 210.631C148.215 212.742 149.516 214.588 151.439 215.479C155.837 217.534 160.454 219.084 165.202 220.101C167.316 220.544 169.501 219.802 170.911 218.167L176.802 211.325C177.865 211.372 178.946 211.372 180.008 211.325L185.9 218.159C187.026 219.471 188.665 220.223 190.393 220.226C190.79 220.223 191.187 220.181 191.579 220.101C196.327 219.084 200.942 217.534 205.339 215.478C207.26 214.588 208.56 212.742 208.751 210.636L209.588 201.491C210.486 200.866 211.358 200.222 212.206 199.562L220.821 201.539H220.823C222.927 202.021 225.126 201.322 226.567 199.711C229.844 196.06 232.707 192.06 235.105 187.779C236.125 185.951 236.109 183.72 235.057 181.908L230.501 174.04C230.869 172.967 231.213 171.863 231.534 170.71L239.728 167.097C241.667 166.241 243.002 164.416 243.23 162.31C243.792 157.419 243.792 152.481 243.23 147.591C243.002 145.485 241.667 143.66 239.728 142.804L231.534 139.191C231.213 138.044 230.869 136.936 230.501 135.869L235.057 128V127.998C236.109 126.186 236.125 123.955 235.105 122.13C232.708 117.846 229.844 113.843 226.567 110.19C225.126 108.58 222.927 107.88 220.823 108.362L214.01 109.928V71.8732C214.007 65.5021 212.293 59.2502 209.05 53.7691C205.808 48.2854 201.153 43.7741 195.571 40.7005C199.876 36.1944 202.234 30.1751 202.139 23.9447C202.043 17.7112 199.5 11.7692 195.06 7.39564C190.62 3.02454 184.635 0.573792 178.404 0.573792C172.173 0.573792 166.189 3.02427 161.749 7.39564C157.309 11.7694 154.766 17.7115 154.67 23.9447C154.575 30.1755 156.932 36.194 161.237 40.7005C155.655 43.7735 151.001 48.2854 147.758 53.7691C144.516 59.2502 142.802 65.5024 142.799 71.8732V109.928L135.956 108.362C133.853 107.88 131.651 108.58 130.213 110.19C126.936 113.841 124.069 117.841 121.675 122.122C120.652 123.95 120.67 126.181 121.722 127.993L126.28 135.861ZM166.537 24.4014C166.537 21.2542 167.787 18.2341 170.012 16.0088C172.237 13.7836 175.258 12.5331 178.405 12.5331C181.552 12.5331 184.572 13.7836 186.797 16.0088C189.023 18.2341 190.273 21.2542 190.273 24.4014C190.273 27.5485 189.023 30.5686 186.797 32.7939C184.572 35.0191 181.552 36.2696 178.405 36.2696C175.258 36.2696 172.237 35.0191 170.012 32.7939C167.787 30.5686 166.537 27.5485 166.537 24.4014ZM154.668 71.8742C154.668 63.3942 159.193 55.5578 166.537 51.3171C173.88 47.0785 182.93 47.0785 190.273 51.3171C197.616 55.5584 202.141 63.3949 202.141 71.8742V93.0227C201.333 92.7021 200.52 92.4292 199.709 92.1617C199.087 91.9365 198.464 91.7061 197.839 91.4968V91.4994C195.794 90.8239 193.714 90.257 191.608 89.8013C189.494 89.3589 187.309 90.1007 185.899 91.7352L180.008 98.5781C179.472 98.5781 178.945 98.5436 178.405 98.5436C177.864 98.5436 177.337 98.5436 176.802 98.5781L174.839 96.2998L170.916 91.7432C169.866 90.5246 168.367 89.7855 166.762 89.6954C166.232 89.6637 165.699 89.7034 165.178 89.8067H165.13C163.037 90.2624 160.968 90.8266 158.936 91.4995C158.343 91.6956 157.749 91.926 157.108 92.1459C156.29 92.4426 155.466 92.6916 154.645 93.0175L154.668 71.8742ZM132.712 148.882C134.431 148.127 135.69 146.601 136.106 144.77C136.643 142.323 137.391 139.925 138.339 137.602C139.046 135.893 138.916 133.951 137.987 132.351L133.767 125.072C134.723 123.588 135.753 122.147 136.858 120.746L144.803 122.568L144.806 122.566C146.671 122.992 148.623 122.497 150.059 121.23C150.719 120.637 151.524 120.173 152.231 119.628C152.279 119.593 152.332 119.58 152.374 119.546L152.968 119.071C153.815 118.444 154.6 117.771 155.508 117.191C155.662 117.085 155.805 116.952 155.972 116.851H155.969C157.551 115.871 158.581 114.202 158.751 112.348L159.527 103.873H159.53C161.095 103.251 162.69 102.708 164.311 102.247L169.747 108.56V108.562C170.971 110.014 172.828 110.774 174.72 110.597H174.754C177.189 110.39 179.634 110.39 182.066 110.597H182.095C183.986 110.78 185.846 110.017 187.067 108.562L192.514 102.249L192.517 102.247C194.125 102.71 195.709 103.253 197.264 103.873L198.04 112.34V112.342C198.207 114.199 199.24 115.868 200.824 116.851C200.925 116.91 201.007 116.994 201.111 117.058C202.091 117.651 202.933 118.404 203.847 119.082L204.441 119.545C204.475 119.545 204.523 119.58 204.56 119.612C205.278 120.163 206.086 120.645 206.756 121.233L206.751 121.23C208.186 122.497 210.139 122.992 212.004 122.565L219.943 120.743C221.053 122.144 222.092 123.591 223.04 125.069L218.82 132.349L218.823 132.351C217.896 133.949 217.766 135.888 218.47 137.597C219.416 139.92 220.163 142.32 220.704 144.77C221.12 146.601 222.378 148.127 224.097 148.882L231.711 152.241C231.764 153.136 231.788 154.021 231.788 154.954C231.788 155.886 231.788 156.768 231.711 157.666L224.097 161.026C222.378 161.781 221.12 163.306 220.704 165.137C220.166 167.585 219.419 169.982 218.47 172.305C217.763 174.014 217.893 175.956 218.823 177.556L223.043 184.836C222.086 186.319 221.056 187.76 219.951 189.162L212.006 187.339L212.004 187.342C210.139 186.915 208.186 187.411 206.75 188.677C204.901 190.304 202.915 191.769 200.816 193.061C199.235 194.044 198.204 195.71 198.035 197.565L197.259 206.031L197.256 206.034C195.69 206.654 194.095 207.197 192.474 207.661L187.033 201.348V201.345C185.79 199.906 183.936 199.151 182.042 199.31C179.602 199.512 177.149 199.512 174.707 199.31C172.815 199.151 170.958 199.906 169.718 201.345L164.277 207.658V207.661C162.656 207.2 161.058 206.656 159.492 206.034L158.722 197.567V197.565C158.552 195.708 157.516 194.036 155.927 193.056C153.829 191.769 151.842 190.301 149.993 188.677C148.559 187.411 146.604 186.915 144.739 187.342L136.866 189.164C135.756 187.763 134.718 186.317 133.769 184.838L137.99 177.559L137.987 177.556C138.914 175.959 139.044 174.019 138.339 172.311C137.394 169.987 136.646 167.587 136.106 165.137C135.69 163.306 134.432 161.78 132.712 161.025L125.098 157.666C124.998 156.768 124.998 155.862 124.998 154.954C124.998 154.045 124.998 153.139 125.075 152.241L132.712 148.882Z" fill="white"/>
<path d="M291.153 261.766C283.285 261.766 275.738 264.892 270.172 270.455C264.608 276.02 261.483 283.568 261.483 291.436C261.483 299.304 264.609 306.851 270.172 312.418C275.737 317.981 283.285 321.107 291.153 321.107C299.021 321.107 306.568 317.981 312.135 312.418C317.698 306.852 320.824 299.304 320.824 291.436C320.813 283.571 317.684 276.029 312.124 270.465C306.561 264.905 299.019 261.776 291.153 261.766ZM291.153 309.238C286.432 309.238 281.902 307.363 278.565 304.025C275.227 300.687 273.351 296.157 273.351 291.436C273.351 286.716 275.227 282.185 278.565 278.848C281.903 275.511 286.433 273.635 291.153 273.635C295.873 273.635 300.404 275.51 303.742 278.848C307.079 282.186 308.955 286.716 308.955 291.436C308.955 296.157 307.08 300.688 303.742 304.025C300.404 307.362 295.873 309.238 291.153 309.238Z" fill="white"/>
<path d="M352.502 279.29L344.308 275.676C343.988 274.532 343.643 273.425 343.275 272.354L347.832 264.486V264.483C348.883 262.671 348.902 260.441 347.879 258.616C345.482 254.332 342.618 250.329 339.341 246.676C337.903 245.065 335.701 244.366 333.598 244.848L326.755 246.414V208.359C326.752 201.988 325.038 195.736 321.796 190.255C318.553 184.771 313.898 180.26 308.317 177.186C312.622 172.68 314.979 166.661 314.884 160.43C314.789 154.197 312.245 148.255 307.805 143.881C303.365 139.51 297.381 137.06 291.149 137.06C284.918 137.06 278.934 139.51 274.494 143.881C270.054 148.255 267.511 154.197 267.415 160.43C267.32 166.661 269.677 172.68 273.982 177.186C268.401 180.259 263.746 184.771 260.503 190.255C257.261 195.736 255.547 201.988 255.544 208.359V246.414L248.701 244.848C246.598 244.366 244.396 245.066 242.958 246.676C239.681 250.327 236.815 254.327 234.42 258.608C233.397 260.436 233.416 262.667 234.467 264.479L239.024 272.347C238.656 273.42 238.311 274.524 237.991 275.677L229.797 279.29C227.858 280.146 226.523 281.971 226.295 284.077C225.733 288.968 225.733 293.906 226.295 298.796C226.523 300.902 227.858 302.727 229.797 303.583L237.991 307.196C238.311 308.341 238.656 309.448 239.024 310.518L234.467 318.387V318.389C233.416 320.201 233.397 322.432 234.42 324.257C236.817 328.541 239.681 332.544 242.958 336.197C244.396 337.807 246.598 338.507 248.701 338.025L257.316 336.048C258.167 336.713 259.038 337.357 259.928 337.977L260.766 347.117C260.959 349.228 262.26 351.075 264.183 351.965C268.581 354.02 273.198 355.57 277.945 356.587C280.059 357.03 282.245 356.288 283.654 354.654L289.546 347.811C290.608 347.858 291.689 347.858 292.752 347.811L298.643 354.645C299.769 355.957 301.409 356.709 303.136 356.712C303.534 356.709 303.931 356.667 304.323 356.587C309.07 355.57 313.685 354.02 318.083 351.964C320.003 351.074 321.304 349.228 321.495 347.122L322.332 337.977C323.23 337.352 324.102 336.708 324.949 336.049L333.564 338.025H333.567C335.67 338.507 337.869 337.808 339.31 336.197C342.587 332.546 345.451 328.546 347.849 324.265C348.869 322.437 348.853 320.207 347.801 318.395L343.244 310.526C343.613 309.453 343.957 308.349 344.278 307.196L352.471 303.583C354.411 302.727 355.746 300.902 355.974 298.796C356.535 293.905 356.535 288.968 355.974 284.077C355.751 281.979 354.429 280.154 352.501 279.29L352.502 279.29ZM279.285 160.886C279.285 157.739 280.536 154.719 282.761 152.493C284.986 150.268 288.006 149.018 291.154 149.018C294.301 149.018 297.321 150.268 299.546 152.493C301.771 154.719 303.022 157.739 303.022 160.886C303.022 164.033 301.771 167.053 299.546 169.278C297.321 171.504 294.301 172.754 291.154 172.754C288.006 172.754 284.986 171.504 282.761 169.278C280.536 167.053 279.285 164.033 279.285 160.886ZM267.417 208.359C267.417 199.879 271.942 192.042 279.285 187.802C286.629 183.563 295.678 183.563 303.022 187.802C310.365 192.043 314.89 199.879 314.89 208.359V229.507C314.082 229.187 313.269 228.914 312.458 228.646C311.836 228.421 311.213 228.19 310.588 227.981V227.984C308.543 227.308 306.463 226.741 304.357 226.286C302.243 225.843 300.057 226.585 298.648 228.22L292.756 235.063C292.221 235.063 291.694 235.028 291.154 235.028C290.613 235.028 290.086 235.028 289.551 235.063L287.588 232.784L283.664 228.228C282.973 227.422 282.078 226.821 281.071 226.482C280.067 226.145 278.989 226.079 277.95 226.291H277.902C275.81 226.747 273.741 227.311 271.709 227.984C271.115 228.18 270.522 228.41 269.881 228.63C269.062 228.927 268.238 229.176 267.417 229.502V208.359ZM344.486 294.149L336.872 297.508C335.153 298.263 333.894 299.789 333.478 301.619C332.941 304.067 332.194 306.465 331.245 308.788C330.538 310.496 330.668 312.438 331.597 314.038L335.818 321.318C334.861 322.802 333.831 324.243 332.726 325.644L324.781 323.822L324.778 323.824C322.913 323.39 320.956 323.888 319.525 325.159C317.676 326.786 315.689 328.251 313.591 329.544C312.01 330.527 310.979 332.193 310.809 334.047L310.033 342.514L310.031 342.516C308.465 343.136 306.87 343.679 305.249 344.143L299.808 337.83V337.827C298.565 336.389 296.711 335.634 294.817 335.793C292.377 335.994 289.924 335.994 287.481 335.793C285.59 335.634 283.733 336.389 282.493 337.827L277.052 344.14V344.143C275.43 343.682 273.833 343.139 272.267 342.516L271.496 334.05V334.047C271.327 332.19 270.291 330.519 268.701 329.538C266.603 328.251 264.616 326.783 262.767 325.159C261.337 323.888 259.379 323.39 257.514 323.824L249.617 325.647C248.507 324.245 247.468 322.799 246.52 321.321L250.74 314.041L250.737 314.038C251.664 312.441 251.794 310.502 251.09 308.793C250.144 306.47 249.397 304.07 248.856 301.619C248.44 299.789 247.182 298.263 245.463 297.508L237.849 294.149C237.748 293.251 237.748 292.345 237.748 291.436C237.748 290.527 237.748 289.621 237.825 288.723L245.439 285.364C247.158 284.609 248.417 283.083 248.832 281.253C249.37 278.805 250.117 276.407 251.066 274.084C251.773 272.376 251.643 270.434 250.713 268.834L246.493 261.554C247.45 260.07 248.48 258.629 249.585 257.228L257.53 259.051L257.532 259.048C259.397 259.474 261.352 258.979 262.786 257.713C263.445 257.119 264.251 256.656 264.958 256.11C265.006 256.075 265.059 256.062 265.101 256.028L265.694 255.554C266.542 254.926 267.326 254.253 268.235 253.673C268.389 253.567 268.532 253.434 268.699 253.334H268.696C270.277 252.353 271.308 250.684 271.478 248.83L272.254 240.356H272.256C273.822 239.733 275.417 239.19 277.038 238.729L282.474 245.042V245.045C283.656 246.422 285.409 247.172 287.221 247.074H287.484H287.481C289.916 246.865 292.361 246.865 294.793 247.074H294.899C296.758 247.214 298.576 246.459 299.784 245.037L305.23 238.724C306.838 239.187 308.425 239.73 309.977 240.35L310.754 248.817H310.756C310.923 250.674 311.954 252.345 313.538 253.328C313.639 253.386 313.721 253.471 313.824 253.535C314.804 254.128 315.647 254.881 316.561 255.559L317.154 256.022C317.188 256.022 317.236 256.057 317.273 256.089C317.991 256.64 318.799 257.122 319.469 257.71L319.467 257.707C320.9 258.971 322.855 259.469 324.717 259.042L332.694 257.225C333.804 258.626 334.843 260.073 335.791 261.551L331.571 268.831L331.574 268.833C330.646 270.431 330.517 272.37 331.221 274.079C332.167 276.402 332.914 278.802 333.455 281.253C333.87 283.083 335.129 284.609 336.848 285.364L344.462 288.723C344.515 289.619 344.539 290.503 344.539 291.436C344.539 292.368 344.563 293.251 344.486 294.149Z" fill="white"/>
<path d="M65.6576 321.107C73.5259 321.107 81.0727 317.981 86.6392 312.418C92.2024 306.852 95.3281 299.304 95.3281 291.436C95.3281 283.568 92.2021 276.021 86.6392 270.455C81.0734 264.891 73.5259 261.766 65.6576 261.766C57.7893 261.766 50.2425 264.892 44.6759 270.455C39.1127 276.02 35.9871 283.568 35.9871 291.436C35.9977 299.302 39.1263 306.844 44.6868 312.407C50.25 317.967 57.792 321.096 65.6576 321.107ZM65.6576 273.634C70.3783 273.634 74.9087 275.509 78.246 278.847C81.5834 282.185 83.4596 286.716 83.4596 291.436C83.4596 296.156 81.584 300.687 78.246 304.024C74.9081 307.362 70.3777 309.238 65.6576 309.238C60.9374 309.238 56.4065 307.362 53.0691 304.024C49.7318 300.686 47.8556 296.156 47.8556 291.436C47.8556 286.716 49.7312 282.185 53.0691 278.847C56.4071 275.51 60.9374 273.634 65.6576 273.634Z" fill="white"/>
<path d="M4.30557 303.582L12.4994 307.196C12.8199 308.34 13.1643 309.448 13.5325 310.518L8.97595 318.386V318.389C7.92422 320.201 7.90571 322.431 8.92826 324.257C11.3258 328.54 14.1895 332.543 17.4666 336.196C18.9051 337.807 21.1065 338.506 23.21 338.024L31.8331 336.048C32.6835 336.712 33.5551 337.356 34.4452 337.976L35.2823 347.116H35.2797C35.4731 349.227 36.7764 351.074 38.6998 351.964C43.0974 354.02 47.7121 355.569 52.4594 356.587C54.5735 357.029 56.759 356.287 58.1684 354.653L64.0548 347.81C65.1171 347.858 66.198 347.858 67.2603 347.81L73.152 354.645C74.2779 355.956 75.9177 356.708 77.645 356.711C78.0529 356.711 78.4609 356.669 78.861 356.587C83.6082 355.569 88.2233 354.019 92.6233 351.964C94.5413 351.074 95.8421 349.227 96.0354 347.121L96.8726 337.977C97.7653 337.351 98.6396 336.708 99.4899 336.048L108.105 338.024C110.208 338.506 112.41 337.807 113.848 336.196C117.125 332.546 119.992 328.546 122.387 324.264C123.409 322.436 123.391 320.206 122.339 318.394L117.782 310.526C118.151 309.453 118.495 308.348 118.816 307.196L127.009 303.582C128.949 302.726 130.284 300.901 130.512 298.795C131.073 293.905 131.073 288.967 130.512 284.076C130.284 281.97 128.949 280.145 127.009 279.289L118.816 275.676C118.495 274.532 118.151 273.424 117.782 272.354L122.339 264.486V264.483C123.391 262.671 123.409 260.44 122.387 258.615C119.989 254.332 117.125 250.329 113.848 246.676C112.41 245.065 110.208 244.366 108.105 244.848L101.262 246.414V208.359C101.259 201.987 99.5454 195.736 96.3028 190.255C93.0603 184.771 88.4054 180.259 82.8239 177.186C87.1288 172.68 89.4865 166.661 89.3912 160.43C89.2958 154.197 86.7526 148.255 82.3123 143.881C77.8723 139.51 71.888 137.059 65.6568 137.059C59.4257 137.059 53.4414 139.51 49.0013 143.881C44.5613 148.255 42.018 154.197 41.9224 160.43C41.827 166.661 44.1848 172.679 48.4897 177.186C42.9079 180.259 38.2532 184.771 35.0108 190.255C31.7683 195.736 30.0542 201.988 30.0516 208.359V246.414L23.2087 244.848C21.1052 244.366 18.9038 245.065 17.4653 246.676C14.1883 250.326 11.3219 254.326 8.92697 258.608C7.9044 260.436 7.92292 262.666 8.97465 264.478L13.5312 272.347C13.163 273.419 12.8186 274.524 12.4981 275.677L4.30428 279.29C2.36508 280.146 1.02994 281.971 0.802072 284.077C0.240455 288.967 0.240455 293.905 0.802072 298.796C1.0299 300.902 2.36508 302.727 4.30428 303.583L4.30557 303.582ZM53.7892 160.886C53.7892 157.739 55.0397 154.718 57.2649 152.493C59.4902 150.268 62.5102 149.018 65.6574 149.018C68.8046 149.018 71.8247 150.268 74.0499 152.493C76.2752 154.718 77.5256 157.739 77.5256 160.886C77.5256 164.033 76.2752 167.053 74.0499 169.278C71.8247 171.504 68.8046 172.754 65.6574 172.754C62.5102 172.754 59.4902 171.504 57.2649 169.278C55.0397 167.053 53.7892 164.033 53.7892 160.886ZM41.921 208.359C41.921 199.879 46.4458 192.042 53.7892 187.801C61.1326 183.563 70.1823 183.563 77.5256 187.801C84.869 192.043 89.3938 199.879 89.3938 208.359V229.507C88.5858 229.186 87.7726 228.914 86.9619 228.646C86.3394 228.421 85.7169 228.19 85.0916 227.981V227.984C83.0465 227.308 80.9669 226.741 78.8608 226.286C76.7468 225.843 74.5613 226.585 73.1519 228.22L67.2602 235.062C66.725 235.062 66.1979 235.028 65.6574 235.028C65.117 235.028 64.5898 235.028 64.0547 235.062L62.0917 232.784L58.1682 228.228C56.7483 226.604 54.568 225.867 52.454 226.291H52.4063C50.3135 226.747 48.2445 227.311 46.2126 227.984C45.6192 228.18 44.9966 228.41 44.3847 228.63C43.5661 228.927 42.7422 229.176 41.921 229.502L41.921 208.359ZM12.3271 288.723L19.9648 285.364C21.6842 284.609 22.9425 283.083 23.3584 281.253C23.8962 278.805 24.6432 276.407 25.5916 274.084C26.299 272.376 26.1692 270.434 25.2393 268.834L21.0192 261.554C21.9728 260.071 23.0034 258.629 24.1107 257.228L32.0557 259.051L32.0583 259.048C33.9233 259.474 35.8757 258.979 37.3116 257.713C37.9712 257.119 38.7766 256.656 39.4839 256.11C39.5316 256.076 39.5845 256.062 39.6269 256.028L40.2203 255.554C41.0681 254.926 41.8522 254.253 42.7609 253.673C42.9145 253.567 43.0576 253.434 43.2245 253.334H43.2218C44.8034 252.354 45.8339 250.685 46.0035 248.83L46.7797 240.356H46.7823C48.348 239.733 49.9428 239.19 51.564 238.729L57.0001 245.042V245.045C58.1869 246.433 59.9539 247.182 61.7765 247.074C61.8507 247.079 61.9222 247.079 61.9964 247.074C64.4283 246.865 66.8735 246.865 69.3079 247.074H69.4271H69.4245C69.8563 247.108 70.2907 247.092 70.7199 247.032C71.1014 246.971 71.4749 246.867 71.8352 246.724C71.9067 246.724 71.9836 246.695 72.0498 246.666L72.0471 246.663C72.3889 246.518 72.7174 246.335 73.022 246.123C73.0988 246.07 73.1889 246.041 73.2658 245.985C73.3426 245.932 73.3956 245.855 73.4671 245.802C73.7691 245.577 74.0473 245.32 74.2963 245.037L79.7429 238.724H79.7456C81.3536 239.187 82.9378 239.73 84.4929 240.35L85.269 248.817C85.4359 250.674 86.4691 252.345 88.0533 253.328C88.154 253.387 88.2361 253.471 88.3394 253.535C89.3196 254.128 90.162 254.881 91.076 255.559L91.6694 256.022C91.7039 256.022 91.7516 256.057 91.7887 256.089C92.5066 256.64 93.3146 257.122 93.9848 257.71L93.9822 257.707C95.4154 258.971 97.3704 259.469 99.2328 259.042L107.196 257.225C108.306 258.627 109.345 260.073 110.293 261.551L106.073 268.831L106.075 268.834C105.148 270.431 105.018 272.37 105.723 274.079C106.669 276.402 107.416 278.802 107.956 281.253C108.372 283.083 109.631 284.609 111.35 285.364L118.964 288.723C119.017 289.619 119.041 290.503 119.041 291.436C119.041 292.368 119.041 293.251 118.964 294.149L111.35 297.508C109.631 298.263 108.372 299.789 107.956 301.619C107.419 304.067 106.672 306.465 105.723 308.788C105.016 310.496 105.146 312.438 106.075 314.038L110.296 321.318C109.339 322.802 108.309 324.243 107.204 325.644L99.259 323.821L99.2564 323.824C97.3914 323.39 95.4337 323.888 94.0031 325.159C92.154 326.786 90.1672 328.251 88.069 329.544C86.4875 330.526 85.4569 332.193 85.2874 334.047L84.5112 342.514L84.5086 342.516C82.9429 343.136 81.3481 343.679 79.7268 344.143L74.2855 337.83V337.827C73.043 336.389 71.1886 335.634 69.2945 335.793C66.8546 335.994 64.4015 335.994 61.9592 335.793C60.0677 335.634 58.2107 336.389 56.9709 337.827L51.5295 344.14V344.143C49.9083 343.682 48.3108 343.139 46.7451 342.516L45.9742 334.05V334.047C45.8047 332.19 44.7689 330.518 43.1794 329.538C41.0812 328.251 39.0944 326.783 37.2453 325.159C35.8121 323.893 33.857 323.398 31.992 323.824L24.119 325.647C23.009 324.245 21.9705 322.799 21.0221 321.321L25.2422 314.041L25.2396 314.038C26.1668 312.441 26.2966 310.502 25.5919 308.793C24.6462 306.47 23.8991 304.07 23.3587 301.619C22.9428 299.789 21.6844 298.263 19.9651 297.508L12.3512 294.149C12.2505 293.251 12.2505 292.344 12.2505 291.436C12.2505 290.527 12.2503 289.621 12.3271 288.723Z" fill="white"/>
<path d="M120.665 59.789L116.042 48.8587C80.093 64.0649 50.921 91.8542 33.9888 127.026L44.6702 132.176C60.3477 99.6023 87.3666 73.8679 120.661 59.7936L120.665 59.789Z" fill="white"/>
<path d="M134.29 338.17L130.771 349.503L130.769 349.505C162.736 359.4 196.992 359.096 228.78 348.631L225.052 337.356C195.61 347.005 163.902 347.288 134.291 338.17L134.29 338.17Z" fill="white"/>
<path d="M312.869 133.725L323.622 128.704V128.702C306.609 92.1938 276.453 63.4449 239.174 48.1946L234.671 59.173H234.668C269.189 73.2955 297.114 99.9169 312.869 133.726L312.869 133.725Z" fill="white"/>
</svg>
