<svg width="308" height="308" viewBox="0 0 308 308" fill="none" xmlns="http://www.w3.org/2000/svg">
<path d="M56.7493 135.801C41.7437 135.82 27.3624 141.788 16.7516 152.396C6.14396 163.006 0.173911 177.391 0.156162 192.394C-0.517355 203.789 3.17459 215.016 10.4843 223.784C15.3475 230.381 19.9458 236.606 19.9458 253.887H19.9434C19.9458 256.816 20.7308 259.691 22.2165 262.215C23.7022 264.74 25.8341 266.823 28.392 268.246C27.4263 269.985 26.9212 271.938 26.9236 273.927V277.101V277.099C26.9286 280.087 28.0676 282.96 30.1104 285.139C32.1533 287.318 34.9464 288.64 37.9277 288.838C37.5414 290.015 37.3433 291.243 37.3458 292.478V295.648C37.3483 298.77 38.5888 301.764 40.7975 303.973C43.0063 306.182 45.9999 307.425 49.1225 307.427H64.3881C67.5105 307.422 70.5042 306.182 72.7131 303.973C74.9193 301.764 76.1623 298.771 76.1648 295.648V292.478C76.1648 291.243 75.9692 290.015 75.5829 288.838C78.5642 288.64 81.3574 287.318 83.4002 285.139C85.443 282.96 86.582 280.088 86.5869 277.099V273.924V273.927C86.5894 271.938 86.0868 269.985 85.1211 268.246C87.6764 266.82 89.8035 264.735 91.2867 262.212C92.7674 259.689 93.5475 256.814 93.5499 253.887C93.5499 236.606 98.1482 230.381 103.014 223.785C110.324 215.016 114.02 203.792 113.347 192.394C113.33 177.388 107.36 163.004 96.7492 152.394C86.139 141.786 71.7524 135.818 56.7493 135.801ZM67.9763 295.644C67.9763 297.63 66.3668 299.242 64.3809 299.245H49.1153C47.1295 299.242 45.5199 297.633 45.5175 295.644V292.475C45.5199 290.487 47.1295 288.877 49.1153 288.875H64.3809C66.3668 288.877 67.9763 290.489 67.9763 292.475V295.644ZM78.3912 277.095C78.3912 279.084 76.7792 280.693 74.7934 280.696H38.7005C36.7146 280.693 35.1026 279.084 35.1026 277.095V273.921V273.923C35.1026 271.937 36.7146 270.328 38.7005 270.328H74.7934C76.7792 270.328 78.3912 271.937 78.3912 273.923V277.095ZM45.4482 209.053H41.8751C40.4265 209.053 39.1216 208.184 38.5669 206.844C38.0122 205.507 38.3168 203.967 39.342 202.944C40.3646 201.919 41.9048 201.614 43.2419 202.169C44.579 202.724 45.4507 204.029 45.4482 205.477V209.053ZM61.3476 262.147H53.6318V217.232H61.3502L61.3476 262.147ZM96.4301 218.928C91.245 225.952 85.3692 233.916 85.3692 253.886H85.3717C85.3642 258.447 81.6673 262.144 77.1063 262.146H69.5318V217.231H73.1074C76.2249 217.231 79.2161 215.991 81.4197 213.787C83.626 211.581 84.864 208.592 84.864 205.472C84.864 202.355 83.6235 199.363 81.4197 197.16C79.2134 194.953 76.2222 193.715 73.1048 193.718C69.9849 193.718 66.9962 194.956 64.79 197.162C62.5862 199.368 61.3481 202.36 61.3506 205.477V209.053H53.6323V205.477C53.6323 202.36 52.3942 199.368 50.1904 197.162C47.9866 194.956 44.9954 193.718 41.8781 193.718C38.7581 193.715 35.7694 194.953 33.5632 197.16C31.357 199.364 30.1189 202.355 30.1189 205.472C30.1189 208.592 31.3569 211.581 33.5608 213.787C35.767 215.991 38.7582 217.231 41.8756 217.231H45.4512L45.4487 262.146H36.3884C31.8273 262.141 28.1306 258.447 28.123 253.886C28.123 233.915 22.2471 225.952 17.0646 218.928C10.8123 211.556 7.68231 202.037 8.33586 192.393C8.48443 175.196 17.7429 159.368 32.6617 150.811C47.578 142.256 65.9166 142.256 80.8329 150.811C95.7517 159.368 105.01 175.196 105.159 192.393C105.815 202.035 102.683 211.556 96.4325 218.928H96.4301ZM69.5312 209.053V205.477C69.5288 204.029 70.4004 202.724 71.7375 202.169C73.0771 201.614 74.6148 201.919 75.6399 202.944C76.6626 203.967 76.9697 205.507 76.415 206.844C75.8603 208.184 74.5529 209.053 73.1068 209.053H69.5312ZM307.091 66.0262L303.612 53.0415C302.847 50.2062 300.99 47.792 298.449 46.3234C295.906 44.8551 292.885 44.4539 290.05 45.2092L286.222 46.2219C283.382 41.3513 279.937 36.8618 275.97 32.8581L277.951 29.4286V29.4311C279.412 26.8856 279.808 23.8647 279.048 21.0294C278.288 18.1941 276.436 15.7774 273.898 14.3043L262.255 7.58185C259.71 6.11843 256.689 5.72472 253.853 6.48489C251.018 7.24259 248.601 9.09477 247.128 11.6353L245.147 15.0673C239.702 13.6336 234.096 12.8932 228.463 12.866L227.431 9.05516C226.668 6.21992 224.811 3.80318 222.268 2.33457C219.725 0.865954 216.704 0.467548 213.866 1.22772L200.881 4.70674C198.049 5.46939 195.632 7.32652 194.166 9.86953C192.698 12.4101 192.296 15.4285 193.052 18.2661L194.077 22.0918C189.209 24.932 184.719 28.3764 180.718 32.3458L177.286 30.3648C174.741 28.9014 171.72 28.5077 168.887 29.2679C166.052 30.0281 163.632 31.8802 162.159 34.4183L155.437 46.0611C153.976 48.6066 153.582 51.6275 154.342 54.4628C155.102 57.298 156.955 59.7148 159.495 61.1878L162.927 63.1688C161.491 68.6138 160.753 74.2201 160.726 79.8504L156.9 80.8756V80.878C154.065 81.6407 151.651 83.4978 150.182 86.0408C148.716 88.5814 148.315 91.6023 149.073 94.4374L152.552 107.427C153.319 110.258 155.177 112.669 157.72 114.133C160.263 115.599 163.281 115.995 166.114 115.237L169.937 114.212V114.209C172.777 119.078 176.221 123.57 180.191 127.571L178.21 131C176.746 133.546 176.353 136.567 177.11 139.402C177.871 142.237 179.723 144.654 182.263 146.127L193.906 152.849C196.449 154.315 199.467 154.714 202.303 153.956C205.138 153.199 207.557 151.349 209.028 148.811L211.009 145.381C216.456 146.815 222.063 147.553 227.693 147.583L228.718 151.406C229.354 153.756 230.746 155.833 232.677 157.316C234.609 158.8 236.976 159.607 239.41 159.614C240.381 159.614 241.344 159.486 242.28 159.235L255.27 155.756H255.267C258.097 154.989 260.509 153.129 261.973 150.586C263.436 148.046 263.832 145.027 263.077 142.192L262.084 138.384C266.952 135.544 271.439 132.097 275.44 128.127L278.872 130.108H278.875C281.418 131.574 284.439 131.97 287.274 131.21C290.109 130.452 292.528 128.598 293.999 126.06L300.719 114.412C302.183 111.869 302.579 108.848 301.821 106.013C301.061 103.177 299.209 100.758 296.668 99.2851L293.237 97.3042C294.67 91.8591 295.411 86.2528 295.438 80.6225L299.261 79.5875C302.094 78.8249 304.51 76.9677 305.977 74.4247C307.445 71.8842 307.846 68.8658 307.091 66.0281L307.091 66.0262ZM298.895 70.3348C298.516 71.0009 297.884 71.4887 297.144 71.6868L290.226 73.5389V73.5414C288.373 74.0391 287.116 75.7551 287.2 77.6717C287.509 84.5577 286.603 91.4463 284.518 98.016C283.941 99.8458 284.714 101.832 286.375 102.79L292.58 106.373C293.955 107.178 294.43 108.936 293.645 110.325L286.932 121.968C286.135 123.349 284.367 123.827 282.98 123.033L276.775 119.45C275.116 118.489 273.009 118.813 271.714 120.232C267.063 125.321 261.554 129.55 255.435 132.724C253.734 133.611 252.877 135.559 253.373 137.412L255.225 144.33C255.628 145.875 254.715 147.457 253.177 147.881L240.192 151.36C238.647 151.766 237.065 150.855 236.641 149.315L234.789 142.396C234.309 140.608 232.689 139.368 230.837 139.365H230.656C223.77 139.672 216.884 138.766 210.312 136.684C208.482 136.104 206.496 136.874 205.538 138.538L201.955 144.744C201.155 146.125 199.387 146.601 198.001 145.808L186.358 139.086C184.984 138.279 184.508 136.518 185.293 135.131L188.871 128.931C189.832 127.27 189.507 125.162 188.091 123.867C183.003 119.217 178.771 113.708 175.596 107.591C174.712 105.888 172.764 105.029 170.909 105.524L163.991 107.376V107.378C163.25 107.579 162.458 107.475 161.792 107.091C161.126 106.707 160.64 106.076 160.442 105.333L156.963 92.3484C156.763 91.6055 156.867 90.8156 157.25 90.1495C157.632 89.4834 158.266 88.9981 159.006 88.7976L165.924 86.9454C167.779 86.4477 169.034 84.7292 168.95 82.8127C168.643 75.9266 169.549 69.04 171.634 62.4683C172.209 60.6385 171.436 58.6551 169.777 57.6943L163.579 54.1014C162.203 53.2967 161.73 51.5386 162.515 50.1519L169.237 38.5091V38.5066C170.039 37.1299 171.803 36.6569 173.189 37.4419L179.394 41.0248C181.053 41.9856 183.161 41.6612 184.456 40.2424C189.108 35.1588 194.62 30.9342 200.739 27.7622C202.443 26.8782 203.302 24.9294 202.804 23.0748L200.952 16.1564C200.541 14.6138 201.455 13.0291 202.998 12.6081L215.987 9.12658L215.985 9.12411C216.728 8.92601 217.518 9.03001 218.184 9.41382C218.85 9.79762 219.335 10.4315 219.536 11.1743L221.388 18.0902V18.0877C221.888 19.9399 223.604 21.1953 225.521 21.116C232.407 20.809 239.293 21.7177 245.865 23.7977C247.692 24.3771 249.681 23.6046 250.639 21.9431L254.222 15.7378H254.22C255.024 14.3585 256.787 13.8831 258.174 14.673L269.817 21.3936H269.819C271.194 22.1983 271.669 23.9614 270.884 25.348L267.286 31.5608C266.328 33.2223 266.652 35.327 268.069 36.6221C273.157 41.2723 277.386 46.7815 280.563 52.898C281.447 54.6016 283.396 55.4609 285.248 54.9656L292.167 53.1134L292.169 53.1109C293.712 52.7049 295.296 53.6161 295.717 55.1563L299.197 68.141C299.392 68.8839 299.283 69.6737 298.895 70.3348ZM217.128 39.3727C203.806 42.9507 193.067 52.7936 188.343 65.7536C183.621 78.7111 185.51 93.157 193.407 104.466C201.3 115.774 214.211 122.527 228.003 122.559C240.193 122.579 251.802 117.339 259.849 108.182C267.899 99.0256 271.606 86.8428 270.026 74.7569C268.444 62.6684 261.726 51.8497 251.594 45.0727C241.459 38.2957 228.895 36.2177 217.121 39.3725L217.128 39.3727ZM236.91 113.209C225.134 116.364 212.57 112.999 203.947 104.376C195.328 95.7566 191.96 83.1902 195.117 71.4137C198.272 59.6397 207.471 50.4405 219.247 47.2862C231.021 44.1291 243.588 47.4967 252.207 56.119C260.83 64.7387 264.194 77.3026 261.04 89.0791C257.886 100.856 248.687 110.055 236.91 113.209ZM241.085 206.253C233.847 219.8 223.903 231.713 211.869 241.253C199.832 250.794 185.966 257.757 171.126 261.711C168.375 262.449 165.589 263.085 162.786 263.613L176.797 271.703L176.799 271.705C178.716 272.852 179.357 275.325 178.24 277.259C177.124 279.193 174.66 279.874 172.709 278.787L150.539 266.008C149.601 265.465 148.915 264.571 148.635 263.524C148.355 262.474 148.501 261.36 149.046 260.419L161.843 238.255C162.376 237.296 163.27 236.593 164.327 236.303C165.382 236.011 166.511 236.155 167.462 236.702C168.41 237.252 169.099 238.156 169.373 239.218C169.648 240.278 169.487 241.404 168.925 242.345L161.269 255.575C163.867 255.085 166.452 254.511 169.004 253.8H169.002C196.856 246.463 220.375 227.823 233.875 202.38C234.942 200.389 237.421 199.639 239.412 200.706C241.403 201.773 242.153 204.252 241.086 206.243L241.085 206.253ZM135.585 22.8976C135.865 23.945 135.716 25.0618 135.177 26.0003L122.375 48.1696C121.246 50.1307 118.743 50.8042 116.781 49.6751C114.82 48.546 114.147 46.0401 115.276 44.0814L123.281 30.2796C120.533 30.7847 117.797 31.3988 115.117 32.1218C95.2708 37.3985 77.4329 48.4345 63.851 63.8364C50.2691 79.2382 41.5505 98.3173 38.7949 118.666C38.525 120.696 36.7967 122.212 34.7489 122.217C34.5582 122.217 34.37 122.207 34.1818 122.185C33.1047 122.036 32.1315 121.467 31.4779 120.6C30.8216 119.736 30.5369 118.644 30.6855 117.569C33.6495 95.623 43.0465 75.0435 57.6883 58.4309C72.3326 41.8158 91.5644 29.908 112.966 24.208C115.546 23.4973 118.159 22.9154 120.776 22.4053L107.409 14.692C105.451 13.5629 104.777 11.057 105.906 9.09592C107.035 7.1373 109.539 6.46379 111.5 7.59289L133.669 20.3945V20.392C134.618 20.9367 135.308 21.8404 135.585 22.8976Z" fill="white"/>
</svg>
