<svg width="292" height="270" viewBox="0 0 292 270" fill="none" xmlns="http://www.w3.org/2000/svg">
<path d="M274.599 0.850464H17.9879C8.47347 0.850464 0.734863 8.59147 0.734863 18.1035V195.48C0.734863 204.992 8.47586 212.733 17.9879 212.733H118.732C116.449 229.051 102.435 241.665 85.4976 241.665H64.6876C61.4646 241.665 58.8423 244.287 58.8423 247.51V263.791C58.8423 267.013 61.4646 269.636 64.6876 269.636H229.075C232.298 269.636 234.92 267.013 234.92 263.791V247.51C234.92 244.287 232.298 241.665 229.075 241.665H208.265C191.327 241.665 177.314 229.053 175.03 212.733H274.602C284.114 212.733 291.855 204.992 291.855 195.48V18.1035C291.852 8.59147 284.112 0.850464 274.599 0.850464ZM17.9879 10.241H274.599C278.935 10.241 282.464 13.7701 282.464 18.1059V180.979H10.129V18.1059C10.129 13.7704 13.6558 10.2434 17.9891 10.2434L17.9879 10.241ZM225.531 251.051V260.245H68.2284V251.051H225.531ZM181.522 241.663H112.243C120.98 234.695 126.956 224.417 128.223 212.731H165.545C166.809 224.417 172.786 234.696 181.524 241.663H181.522ZM274.602 203.34H17.9909C13.6554 203.34 10.126 199.816 10.126 195.48V190.366H282.455V195.48C282.46 199.815 278.933 203.34 274.6 203.34H274.602ZM98.6437 118.278H79.4953C76.901 118.278 74.7999 120.381 74.7999 122.973V163.401C74.7999 165.995 76.9033 168.097 79.4953 168.097H98.6437C101.238 168.097 103.339 165.993 103.339 163.401L103.337 122.973C103.341 120.376 101.238 118.278 98.6437 118.278ZM93.9484 158.703H84.1886V127.666H93.9484V158.703ZM136.795 84.6858H117.645C115.05 84.6858 112.949 86.7892 112.949 89.3812V163.399C112.949 165.993 115.053 168.094 117.645 168.094H136.793C139.387 168.094 141.488 165.991 141.488 163.399V89.3812C141.488 86.7893 139.39 84.6881 136.795 84.6881L136.795 84.6858ZM132.1 158.703H122.34V94.0733H132.1V158.703ZM175.193 102.097H156.044C153.45 102.097 151.349 104.201 151.349 106.793V163.404C151.349 165.998 153.452 168.099 156.044 168.099H175.193C177.787 168.099 179.888 165.995 179.888 163.404V106.79C179.89 104.196 177.787 102.097 175.193 102.097ZM170.499 158.703H160.74L160.737 111.486H170.497L170.499 158.703ZM213.094 64.1037H193.946C191.351 64.1037 189.25 66.2072 189.25 68.7991V163.399C189.25 165.993 191.354 168.094 193.946 168.094H213.094C215.688 168.094 217.79 165.991 217.79 163.399V68.7991C217.79 66.2072 215.691 64.1037 213.094 64.1037ZM208.401 158.703H198.639V73.4913H208.399L208.401 158.703ZM89.0671 110.336C97.4806 110.336 104.322 103.49 104.322 95.0761C104.322 92.3556 103.597 89.8011 102.342 87.5852L119.41 69.549C121.698 70.9163 124.36 71.7202 127.217 71.7202C131.344 71.7202 135.086 70.0655 137.837 67.3941L150.336 74.8192C150.198 75.6442 150.109 76.4809 150.109 77.3434C150.109 85.7569 156.955 92.598 165.364 92.598C173.777 92.598 180.623 85.7527 180.623 77.3434C180.623 74.4944 179.824 71.8347 178.459 69.5491L196.238 48.0565C198.402 49.2368 200.884 49.9099 203.516 49.9099C211.93 49.9099 218.771 43.0645 218.771 34.6552C218.771 26.2417 211.925 19.3958 203.516 19.3958C195.102 19.3958 188.257 26.2411 188.257 34.6552C188.257 36.99 188.801 39.1963 189.741 41.178L171.408 63.339C169.552 62.535 167.509 62.0839 165.364 62.0839C161.203 62.0839 157.429 63.762 154.673 66.4779L142.233 59.0857C142.382 58.2303 142.476 57.3585 142.476 56.4634C142.476 48.0499 135.63 41.204 127.221 41.204C118.808 41.204 111.962 48.0493 111.962 56.4634C111.962 58.5925 112.403 60.6165 113.193 62.4603L95.4306 81.2229C93.4884 80.3277 91.3382 79.8135 89.0639 79.8135C80.6504 79.8135 73.8045 86.6588 73.8045 95.0682C73.8068 103.489 80.6546 110.335 89.0663 110.335L89.0671 110.336ZM203.519 28.7912C206.753 28.7912 209.385 31.4228 209.385 34.6575C209.385 37.8922 206.753 40.5238 203.519 40.5238C200.284 40.5238 197.653 37.8922 197.653 34.6575C197.65 31.4252 200.282 28.7912 203.519 28.7912ZM165.367 71.4822C168.601 71.4822 171.233 74.1138 171.233 77.3531C171.233 80.5877 168.601 83.2194 165.367 83.2194C162.132 83.2194 159.5 80.5878 159.5 77.3531C159.5 74.1138 162.132 71.4822 165.367 71.4822ZM127.219 50.6022C130.454 50.6022 133.086 53.2338 133.086 56.4685C133.086 59.7031 130.454 62.3348 127.219 62.3348C123.985 62.3348 121.353 59.7031 121.353 56.4685C121.351 53.2315 123.98 50.6022 127.219 50.6022ZM89.0671 89.212C92.3017 89.212 94.9334 91.8437 94.9334 95.0783C94.9334 98.313 92.3018 100.945 89.0671 100.945C85.8324 100.945 83.1961 98.313 83.1961 95.0783C83.1985 91.8437 85.8324 89.212 89.0671 89.212Z" fill="white"/>
</svg>
