<svg xmlns="http://www.w3.org/2000/svg" width="340" height="340" fill="none"><path fill="#455A64" d="M314.302 315.738c0 .102-64.512.177-144.069.177-79.556 0-144.081-.075-144.081-.177 0-.101 64.498-.176 144.081-.176 79.584 0 144.069.081 144.069.176Z"/><path fill="#FAFAFA" d="M101.864 82.405h-4.38a3.391 3.391 0 0 0-1.356.142c-.441.18-.808.505-1.037.922-.12.212-.204.44-.251.678-.02.257-.02.516 0 .773v.8a3.87 3.87 0 0 1-.054.834 2.219 2.219 0 0 1-.977 1.41 2.1 2.1 0 0 1-.874.332H76.14a2.095 2.095 0 0 1-1.722-.739 2.265 2.265 0 0 1-.536-1.186 5.363 5.363 0 0 1 0-.678v-.678a3.39 3.39 0 0 0-.136-1.288 2.088 2.088 0 0 0-.78-1.024 2.034 2.034 0 0 0-1.26-.346H61.583a6.726 6.726 0 0 0-5.424 2.387 6.699 6.699 0 0 0-1.356 2.786c-.059.26-.104.522-.136.787V196.66a6.988 6.988 0 0 0 .272 2.122 6.67 6.67 0 0 0 2.603 3.58 6.934 6.934 0 0 0 4.285 1.173h44.056a6.673 6.673 0 0 0 3.797-1.471 6.922 6.922 0 0 0 1.356-1.512c.374-.568.658-1.19.841-1.844a7.132 7.132 0 0 0 .251-2.034v-9.967c0-21.187 0-40.259.034-56.274.034-16.014 0-28.984.04-37.968v-3.173a6.877 6.877 0 0 0-.488-2.712 6.721 6.721 0 0 0-1.268-2 6.533 6.533 0 0 0-1.525-1.24 6.4 6.4 0 0 0-2.516-.889 5.474 5.474 0 0 0-.678-.06h-3.837l-.027.013Z"/><path fill="#263238" d="M105.545 82.48h.231a6.725 6.725 0 0 1 4.746 2.17 6.658 6.658 0 0 1 1.281 2.033c.348.86.519 1.783.502 2.712V196.885a7.241 7.241 0 0 1-.258 2.034 6.86 6.86 0 0 1-.806 1.925 7.28 7.28 0 0 1-1.404 1.553 6.776 6.776 0 0 1-3.885 1.505c-1.41.041-2.807 0-4.224 0H62.005a7.12 7.12 0 0 1-4.326-1.22A6.93 6.93 0 0 1 54.967 199a7.458 7.458 0 0 1-.278-2.278V89.307c0-.272 0-.543.04-.814.041-.271.068-.542.136-.807a6.834 6.834 0 0 1 1.417-2.847 6.815 6.815 0 0 1 5.485-2.428h10.15c.48-.027.957.104 1.356.373.379.265.665.642.82 1.078.128.44.174.9.136 1.356v.678a4.91 4.91 0 0 0 0 .638c.052.418.227.812.501 1.132.271.312.63.534 1.03.637.199.046.402.064.604.054H93.07c.291-.034.57-.132.82-.284a2.149 2.149 0 0 0 .943-1.356c.049-.271.067-.546.054-.82v-.8c-.009-.263.002-.526.034-.787a2.33 2.33 0 0 1 .258-.719c.233-.433.613-.77 1.071-.95.437-.142.9-.19 1.356-.142h7.044-7.064a3.24 3.24 0 0 0-1.316.143c-.44.18-.806.506-1.037.922-.117.212-.199.44-.244.678a4.732 4.732 0 0 0-.034.773v.8c.014.279-.001.558-.047.834a2.19 2.19 0 0 1-.977 1.403c-.257.166-.55.27-.854.305H76.324a2.49 2.49 0 0 1-.63-.06 2.108 2.108 0 0 1-1.093-.679 2.284 2.284 0 0 1-.528-1.18 5.363 5.363 0 0 1 0-.677v-.678a3.426 3.426 0 0 0-.136-1.288 2.102 2.102 0 0 0-.78-1.017 1.98 1.98 0 0 0-1.254-.346H61.821a6.698 6.698 0 0 0-5.376 2.474 6.685 6.685 0 0 0-1.356 2.794c-.068.257-.088.522-.136.786-.047.265 0 .53 0 .8v107.436a7.225 7.225 0 0 0 .271 2.224 6.714 6.714 0 0 0 2.59 3.58 6.933 6.933 0 0 0 4.278 1.173h43.921a6.61 6.61 0 0 0 3.777-1.465 7.073 7.073 0 0 0 1.356-1.512c.37-.568.651-1.19.834-1.844a6.95 6.95 0 0 0 .251-2.034v-66.349c0-16.007-.001-28.984.033-37.968v-3.173a6.824 6.824 0 0 0-.495-2.712 6.737 6.737 0 0 0-5.288-4.122 4.307 4.307 0 0 0-.678-.061l-.258.02Z"/><path fill="#263238" d="M106.847 93.375s-1.112.06-2.481.074c-1.37.014-2.482 0-2.482 0s1.105-.06 2.482-.074c1.376-.014 2.481-.028 2.481 0ZM106.861 94.65s-1.112.06-2.489.067c-1.376.007-2.481 0-2.481 0s1.112-.061 2.481-.075c1.37-.013 2.489-.027 2.489.007ZM106.868 95.917s-1.112.061-2.482.075c-1.37.013-2.481 0-2.481 0s1.111-.061 2.481-.075c1.37-.013 2.482-.027 2.482 0ZM61.679 97.368h1.451v-1.214a.413.413 0 0 1 .36-.325h.5a.407.407 0 0 1 .353.407v1.125l-.054-.047h1.356l-.054.047v-2.088a.427.427 0 0 0-.183-.319l-.59-.576-.563-.556-.271-.271c-.095-.088-.17-.183-.278-.204a.365.365 0 0 0-.305.055c-.081.067-.17.17-.25.244l-.482.488c-.299.312-.617.597-.841.868a.9.9 0 0 0-.068.502v1.715a.753.753 0 0 1 0 .176 1.472 1.472 0 0 1 0-.163v-1.986a.589.589 0 0 1 .075-.278c.25-.305.542-.576.847-.895l.475-.488c.088-.082.156-.17.258-.258a.474.474 0 0 1 .393-.075.746.746 0 0 1 .318.231l.278.264.563.556.583.577a.867.867 0 0 1 .15.163.44.44 0 0 1 .074.223V97.415h-1.56v-1.172a.326.326 0 0 0-.27-.326h-.482a.339.339 0 0 0-.292.264v1.194H61.68v-.007ZM95.403 141.858c0 .19-5.323.346-11.886.346-6.563 0-11.878-.156-11.878-.346 0-.189 5.315-.345 11.878-.345s11.886.169 11.886.345Z"/><path fill="#B3EF9F" d="m68.279 110.75-.129 23.065 30.693.171.129-23.065-30.693-.171Z"/><path fill="#B3EF9F" d="m68.147 133.817 10.8-14.278 6.59 9.01 4.53-4.773 8.773 10.211-30.693-.17ZM88.412 117.837a2.417 2.417 0 0 1-1.507 2.217 2.411 2.411 0 0 1-2.625-.543 2.41 2.41 0 0 1 .39-3.709 2.409 2.409 0 0 1 3.047.32 2.415 2.415 0 0 1 .695 1.715Z"/><path fill="#000" d="m68.147 133.817 10.8-14.278 6.59 9.01 4.53-4.773 8.773 10.211-30.693-.17ZM88.412 117.837a2.417 2.417 0 0 1-1.507 2.217 2.411 2.411 0 0 1-2.625-.543 2.41 2.41 0 0 1 .39-3.709 2.409 2.409 0 0 1 3.047.32 2.415 2.415 0 0 1 .695 1.715Z" opacity=".2"/><path fill="#263238" d="M104.65 150.361c0 .196-9.437.352-21.065.352-11.628 0-21.072-.156-21.072-.352 0-.197 9.404-.367 21.072-.367s21.065.177 21.065.367ZM104.65 156.232c0 .197-9.437.353-21.065.353-11.628 0-21.072-.156-21.072-.353 0-.197 9.43-.346 21.072-.346 11.641 0 21.065.156 21.065.346ZM104.65 162.11c0 .19-9.437.346-21.065.346-11.628 0-21.072-.156-21.072-.346 0-.19 9.43-.352 21.072-.352 11.641 0 21.065.156 21.065.352ZM104.65 167.982c0 .19-9.437.346-21.065.346-11.628 0-21.072-.156-21.072-.346 0-.19 9.404-.36 21.072-.36s21.065.17 21.065.36ZM104.65 173.853c0 .197-9.437.353-21.065.353-11.628 0-21.072-.156-21.072-.353 0-.196 9.43-.346 21.072-.346 11.641 0 21.065.156 21.065.346ZM95.586 179.216c0 .095-1.356.183-3.54.244-2.183.061-5.213.102-8.556.102-3.343 0-6.36-.034-8.55-.102-2.19-.068-3.539-.149-3.539-.244s1.356-.183 3.54-.244a322.7 322.7 0 0 1 8.549-.102c3.336 0 6.367.034 8.556.102 2.19.068 3.54.176 3.54.244Z"/><path fill="#FAFAFA" d="M143.981 72.546h-4.868a3.596 3.596 0 0 0-1.43.156 2.287 2.287 0 0 0-1.16 1.03 2.374 2.374 0 0 0-.271.78 5.273 5.273 0 0 0-.041.862v.901c.01.311-.01.622-.061.93a2.47 2.47 0 0 1-1.084 1.566c-.29.181-.617.297-.956.338h-18.659a2.798 2.798 0 0 1-.678-.067 2.372 2.372 0 0 1-1.214-.753 2.503 2.503 0 0 1-.589-1.356 5.264 5.264 0 0 1 0-.732v-.726a3.922 3.922 0 0 0-.143-1.437 2.31 2.31 0 0 0-.874-1.139 2.199 2.199 0 0 0-1.397-.386H99.22a7.418 7.418 0 0 0-5.994 2.657 7.56 7.56 0 0 0-1.546 3.112c-.074.285-.095.583-.149.875-.054.291 0 .502-.034.752v120.142c-.02.797.08 1.593.299 2.36a7.46 7.46 0 0 0 2.895 3.993 7.701 7.701 0 0 0 4.746 1.315h48.951a7.384 7.384 0 0 0 4.217-1.634 8.007 8.007 0 0 0 1.526-1.688c.41-.627.723-1.313.929-2.034a8.088 8.088 0 0 0 .285-2.237v-11.255c0-23.628 0-44.904.04-62.776.041-17.872 0-32.327.041-42.32v-3.54a7.707 7.707 0 0 0-.549-3.024 7.457 7.457 0 0 0-1.411-2.224 7.188 7.188 0 0 0-1.695-1.39 7.027 7.027 0 0 0-2.793-.983 6.057 6.057 0 0 0-.759-.074h-1.275l-2.963.006Z"/><path fill="#263238" d="M148.042 72.472h.258c.254 0 .508.018.759.054a7.558 7.558 0 0 1 4.529 2.36 7.496 7.496 0 0 1 1.424 2.237c.392.968.584 2.006.563 3.051v119.877a7.66 7.66 0 0 1-1.247 4.4 8.107 8.107 0 0 1-1.56 1.736 7.62 7.62 0 0 1-4.332 1.681c-1.573.048-3.133 0-4.746 0H99.504a7.97 7.97 0 0 1-4.881-1.356 7.71 7.71 0 0 1-2.977-4.108 8.267 8.267 0 0 1-.311-2.536V80.065c0-.305 0-.61.04-.908.04-.298.075-.603.156-.895a7.6 7.6 0 0 1 1.58-3.18 7.797 7.797 0 0 1 2.78-2.081 7.92 7.92 0 0 1 3.335-.63h11.228c.523-.03 1.04.116 1.471.413.426.296.748.718.922 1.207.14.479.191.98.15 1.478v.732a4.794 4.794 0 0 0 0 .678c.054.466.248.906.556 1.261.305.335.704.572 1.145.678.223.05.451.071.678.061h18.666c.327-.036.642-.145.922-.319a2.406 2.406 0 0 0 1.051-1.512c.052-.302.07-.609.054-.915v-.895a5.438 5.438 0 0 1 .034-.874c.052-.28.148-.55.285-.8.266-.482.69-.858 1.2-1.065a3.767 3.767 0 0 1 1.491-.156H146.937h-7.77a3.711 3.711 0 0 0-1.464.163 2.25 2.25 0 0 0-1.159 1.03 2.358 2.358 0 0 0-.278.78 5.891 5.891 0 0 0 0 .861v.895c.015.31-.003.622-.055.929a2.441 2.441 0 0 1-1.091 1.573 2.316 2.316 0 0 1-.949.339h-18.659a2.774 2.774 0 0 1-.678-.075 2.327 2.327 0 0 1-1.214-.745 2.505 2.505 0 0 1-.589-1.323 5.262 5.262 0 0 1 0-.732v-.556a3.923 3.923 0 0 0-.15-1.437 2.36 2.36 0 0 0-.962-1.14 2.287 2.287 0 0 0-1.397-.386H99.274a7.458 7.458 0 0 0-6 2.665 7.587 7.587 0 0 0-1.54 3.112c-.074.285-.094.583-.149.874-.054.292 0 .59-.04.895V199.91a7.991 7.991 0 0 0 .305 2.474 7.459 7.459 0 0 0 2.895 3.994 7.677 7.677 0 0 0 4.746 1.308H148.49a7.4 7.4 0 0 0 4.217-1.634 7.773 7.773 0 0 0 1.519-1.688 7.224 7.224 0 0 0 .935-2.034 7.705 7.705 0 0 0 .278-2.23v-11.282c0-23.622 0-44.897.034-62.77.034-17.872 0-32.327.048-42.327v-3.56a7.818 7.818 0 0 0-.543-3.023 7.52 7.52 0 0 0-1.41-2.231 7.354 7.354 0 0 0-1.695-1.356 7.457 7.457 0 0 0-3.553-1.058l-.278-.02Z"/><path fill="#263238" d="M149.493 84.622s-1.24.074-2.766.081c-1.525.007-2.773 0-2.773 0s1.241-.068 2.766-.081c1.526-.014 2.773-.028 2.773 0ZM149.507 86.039s-1.241.074-2.773.081c-1.532.007-2.766 0-2.766-.034s1.234-.068 2.766-.081c1.532-.014 2.773.007 2.773.034ZM149.514 87.456s-1.234.074-2.766.081c-1.533.007-2.774 0-2.774 0s1.241-.068 2.774-.081c1.532-.014 2.766-.027 2.766 0ZM99.118 89.076H100.738v-1.349a.465.465 0 0 1 .4-.366c.188-.01.376-.01.563 0a.452.452 0 0 1 .387.454v1.248l-.055-.055h1.492l-.054.061v-2.332a.466.466 0 0 0-.21-.352l-.678-.678-.631-.624-.305-.299a.744.744 0 0 0-.312-.23.38.38 0 0 0-.339.068c-.088.074-.19.183-.278.27l-.536.543c-.339.346-.678.678-.942.97a1.03 1.03 0 0 0-.075.556v2.108-2.393c0-.11.028-.217.082-.312.278-.339.61-.637.949-.996l.529-.55c.095-.095.176-.183.291-.284a.506.506 0 0 1 .428-.082.779.779 0 0 1 .359.251l.305.305c.21.197.42.407.631.617l.678.678c.06.052.115.111.162.176.053.073.082.161.082.251v2.394h-1.607v-1.309a.355.355 0 0 0-.299-.36h-.542a.375.375 0 0 0-.325.292v1.37h-1.655l-.115-.04Z"/><path fill="#B3EF9F" d="M129.275 96.832a5 5 0 0 1-5.978 4.915 5.005 5.005 0 1 1 4.515-8.448 4.997 4.997 0 0 1 1.463 3.533Z"/><path fill="#fff" d="M125.994 98.853h-3.431v-.387a1.715 1.715 0 0 1 3.431 0v.387Z"/><path fill="#fff" d="M125.282 95.829a1.005 1.005 0 0 1-.625.934 1.012 1.012 0 0 1-.942-1.777 1.011 1.011 0 0 1 1.567.843Z"/><path fill="#263238" d="M136.727 110.053c0 .211-5.933.387-13.248.387-7.316 0-13.255-.176-13.255-.387 0-.21 5.932-.393 13.255-.393 7.322 0 13.248.176 13.248.393Z"/><path fill="#B3EF9F" d="m96.447 123.219-.096 17.194 22.882.127.096-17.193-22.882-.128Z"/><path fill="#B3EF9F" d="m96.345 140.414 8.055-10.644 4.908 6.712 3.377-3.553 6.542 7.614-22.882-.129ZM111.458 128.502a1.805 1.805 0 0 1-3.575.334 1.805 1.805 0 0 1 3.054-1.609c.335.339.522.798.521 1.275Z"/><path fill="#000" d="m96.345 140.414 8.055-10.644 4.908 6.712 3.377-3.553 6.542 7.614-22.882-.129ZM111.458 128.502a1.805 1.805 0 0 1-3.575.334 1.805 1.805 0 0 1 3.054-1.609c.335.339.522.798.521 1.275Z" opacity=".2"/><path fill="#B3EF9F" d="m96.362 145.726-.222 39.75 52.89.295.222-39.75-52.89-.295Z"/><path fill="#B3EF9F" d="m96.141 185.474 18.612-24.611 11.356 15.526 7.804-8.217 15.119 17.594-52.89-.292ZM131.065 157.927a4.16 4.16 0 0 1-4.997 4.058 4.16 4.16 0 0 1-3.253-3.29 4.162 4.162 0 0 1 5.705-4.626 4.153 4.153 0 0 1 2.545 3.858Z"/><path fill="#000" d="m96.141 185.474 18.612-24.611 11.356 15.526 7.804-8.217 15.119 17.594-52.89-.292ZM131.065 157.927a4.16 4.16 0 0 1-4.997 4.058 4.16 4.16 0 0 1-3.253-3.29 4.162 4.162 0 0 1 5.705-4.626 4.153 4.153 0 0 1 2.545 3.858Z" opacity=".2"/><path fill="#B3EF9F" d="m126.651 123.219-.096 17.194 22.882.128.096-17.194-22.882-.128Z"/><path fill="#B3EF9F" d="m126.55 140.414 8.055-10.644 4.908 6.712 3.383-3.553 6.536 7.614-22.882-.129ZM139.859 130.292a1.804 1.804 0 1 0-.001-3.607 1.804 1.804 0 0 0 .001 3.607Z"/><path fill="#000" d="m126.55 140.414 8.055-10.644 4.908 6.712 3.383-3.553 6.536 7.614-22.882-.129ZM139.859 130.292a1.804 1.804 0 1 0-.001-3.607 1.804 1.804 0 0 0 .001 3.607Z" opacity=".2"/><path fill="#FAFAFA" d="M286.056 79.245h-4.359a3.494 3.494 0 0 0-1.316.142 2.145 2.145 0 0 0-1.281 1.628 4.161 4.161 0 0 0-.034.773v.806c.015.277-.003.555-.054.828a2.243 2.243 0 0 1-.983 1.417c-.26.16-.552.261-.855.298h-16.74c-.214.01-.428-.01-.637-.061a2.11 2.11 0 0 1-1.085-.678 2.225 2.225 0 0 1-.528-1.187 5.113 5.113 0 0 1 0-.678v-.678a3.4 3.4 0 0 0-.129-1.288 2.092 2.092 0 0 0-.78-1.024c-.369-.25-.81-.37-1.254-.345h-10.096a6.669 6.669 0 0 0-5.376 2.386 6.782 6.782 0 0 0-1.485 3.573c0 .224 0 .448-.034.678v107.741a6.974 6.974 0 0 0 .271 2.116 6.677 6.677 0 0 0 2.59 3.579 6.91 6.91 0 0 0 4.272 1.18h43.927a6.629 6.629 0 0 0 3.777-1.464 6.957 6.957 0 0 0 1.356-1.519c.373-.568.657-1.19.84-1.844a6.828 6.828 0 0 0 .251-2v-66.349c0-16.015 0-28.992.041-37.968V86.14a7.03 7.03 0 0 0-.495-2.712 6.718 6.718 0 0 0-2.78-3.24 6.454 6.454 0 0 0-2.508-.889c-.299-.054-.529-.04-.678-.06h-3.831l-.007.006Z"/><path fill="#EBEBEB" d="M286.287 124.868h-37.86v7.736h37.86v-7.736Z"/><path fill="#263238" d="M289.785 79.184h.231c.227.004.453.022.678.054 1.56.212 2.998.96 4.068 2.116a6.953 6.953 0 0 1 1.281 2.034c.345.862.515 1.783.502 2.712V193.597a7.024 7.024 0 0 1-.258 2.034 6.525 6.525 0 0 1-.861 1.891 7.108 7.108 0 0 1-1.397 1.56 6.835 6.835 0 0 1-3.885 1.505c-1.41.04-2.813 0-4.23 0h-39.65a7.147 7.147 0 0 1-4.38-1.207 6.892 6.892 0 0 1-2.664-3.688 7.36 7.36 0 0 1-.285-2.272V85.198c0-.271.068-.542.136-.807a6.781 6.781 0 0 1 6.902-5.275h10.068c.469-.021.933.11 1.322.373.379.265.666.642.821 1.078.135.439.181.9.135 1.356v.678a4.84 4.84 0 0 0 0 .638c.051.418.228.81.509 1.125.264.317.623.54 1.023.637.2.051.405.072.611.061h16.739c.293-.033.573-.133.821-.291a2.09 2.09 0 0 0 .942-1.356c.052-.268.07-.541.054-.814v-.807a5.08 5.08 0 0 1 .041-.78 2.156 2.156 0 0 1 1.329-1.675 3.491 3.491 0 0 1 1.356-.141H288.816h-6.991a3.228 3.228 0 0 0-1.315.142c-.443.176-.81.503-1.037.922-.119.21-.202.44-.244.678a4.157 4.157 0 0 0 0 .773v.807a3.82 3.82 0 0 1-.055.834 2.207 2.207 0 0 1-.969 1.403c-.26.166-.555.27-.861.305h-16.781a2.903 2.903 0 0 1-.637-.06 2.207 2.207 0 0 1-1.614-1.858 4.513 4.513 0 0 1 0-.678v-.678a3.548 3.548 0 0 0-.128-1.289 2.038 2.038 0 0 0-2.034-1.356h-10.096a6.973 6.973 0 0 0-2.936.563 6.629 6.629 0 0 0-3.824 4.617c-.067.258-.088.522-.135.787-.048.264-.034.529-.034.8v107.415a7.186 7.186 0 0 0 .271 2.217 6.702 6.702 0 0 0 2.597 3.58 6.916 6.916 0 0 0 4.271 1.18h43.921a6.626 6.626 0 0 0 3.783-1.464 7.225 7.225 0 0 0 1.356-1.512c.371-.57.655-1.191.841-1.845a7.384 7.384 0 0 0 .251-2.034v-9.946c0-21.181 0-40.259.034-56.274.034-16.014 0-28.991.034-37.968v-3.173a6.95 6.95 0 0 0-.488-2.712 6.725 6.725 0 0 0-1.268-1.993 6.278 6.278 0 0 0-1.519-1.248 6.438 6.438 0 0 0-2.502-.881 4.429 4.429 0 0 0-.678-.061l-.244-.007Z"/><path fill="#263238" d="M291.08 90.08s-1.112.06-2.481.074c-1.37.014-2.482 0-2.482-.034s1.112-.06 2.482-.074c1.369-.014 2.481.006 2.481.034ZM291.094 91.347c0 .034-1.112.062-2.482.075-1.369.014-2.481 0-2.488-.034-.007-.034 1.112-.06 2.488-.068 1.377-.006 2.482 0 2.482.027ZM291.1 92.622s-1.105.061-2.481.075c-1.376.013-2.481 0-2.481-.034s1.111-.061 2.481-.075c1.37-.013 2.481.007 2.481.034ZM245.919 94.073H247.369v-1.214a.406.406 0 0 1 .353-.325h.509a.408.408 0 0 1 .345.407v1.118l-.047-.047h1.356l-.054.054v-2.088a.431.431 0 0 0-.19-.319l-.583-.576-.563-.556-.278-.271c-.095-.088-.163-.183-.278-.204a.353.353 0 0 0-.305.055c-.081.067-.17.17-.251.244l-.475.488c-.305.312-.617.597-.847.868a.968.968 0 0 0-.068.502V94.1a.738.738 0 0 1 0-.163V91.951a.497.497 0 0 1 .075-.278c.244-.305.542-.576.847-.895.149-.163.312-.326.475-.488.081-.091.167-.177.257-.258a.467.467 0 0 1 .387-.075.682.682 0 0 1 .319.231l.278.264.562.556.59.577c.055.05.105.104.149.162a.434.434 0 0 1 .068.224v2.143H248.542V92.94a.326.326 0 0 0-.271-.326h-.488a.323.323 0 0 0-.184.083.321.321 0 0 0-.101.175V94.1h-1.478l-.101-.027Z"/><path fill="#EBEBEB" d="M286.368 136.401h-37.86v7.735h37.86v-7.735ZM286.368 147.621h-37.86v7.736h37.86v-7.736Z"/><path fill="#B3EF9F" d="M277.269 170.728h-18.984a3.874 3.874 0 0 1-3.864-3.872 3.86 3.86 0 0 1 3.864-3.864h18.984a3.865 3.865 0 0 1 2.733 6.599 3.87 3.87 0 0 1-2.733 1.137Z"/><path fill="#263238" d="M279.554 116.874c0 .19-5.315.346-11.878.346s-11.879-.156-11.879-.346c0-.19 5.316-.346 11.879-.346s11.878.156 11.878.346Z"/><path fill="#FAFAFA" d="M255.024 71.245h-4.868a3.597 3.597 0 0 0-1.464.156 2.288 2.288 0 0 0-1.16 1.03 2.54 2.54 0 0 0-.271.78c-.039.287-.05.578-.034.868v.895c.01.31-.011.622-.061.928a2.463 2.463 0 0 1-1.085 1.566c-.29.182-.616.298-.956.34h-18.658a2.788 2.788 0 0 1-.678-.068 2.363 2.363 0 0 1-1.214-.753 2.558 2.558 0 0 1-.59-1.356 6.878 6.878 0 0 1 0-.732v-.725a3.92 3.92 0 0 0-.142-1.438 2.34 2.34 0 0 0-.868-1.139 2.257 2.257 0 0 0-1.403-.386h-11.31a7.415 7.415 0 0 0-5.993 2.657 7.564 7.564 0 0 0-1.546 3.113c-.074.291-.095.583-.149.874-.054.292 0 .502 0 .753v120.141a7.655 7.655 0 0 0 .305 2.36 7.424 7.424 0 0 0 2.888 3.993 7.71 7.71 0 0 0 4.746 1.316h48.952a7.391 7.391 0 0 0 4.217-1.634 7.86 7.86 0 0 0 1.526-1.689 7.43 7.43 0 0 0 .928-2.034 7.515 7.515 0 0 0 .285-2.237v-11.241c0-23.629 0-44.904.034-62.776s0-32.327.041-42.321v-3.54a7.707 7.707 0 0 0-.549-3.023 7.457 7.457 0 0 0-1.411-2.224 7.455 7.455 0 0 0-4.488-2.373 5.761 5.761 0 0 0-.759-.068h-1.275l-2.99-.013Z"/><path fill="#263238" d="M259.085 71.346h.258c.254.007.508.027.759.061a7.1 7.1 0 0 1 2.814.97c.637.363 1.215.82 1.715 1.356a7.495 7.495 0 0 1 1.424 2.237c.392.966.584 2.002.563 3.045v119.877a7.951 7.951 0 0 1-.285 2.291 7.528 7.528 0 0 1-.963 2.116 8.047 8.047 0 0 1-1.559 1.735 7.624 7.624 0 0 1-4.332 1.682c-1.573.041-3.133 0-4.713 0h-44.219a7.897 7.897 0 0 1-4.881-1.356 7.676 7.676 0 0 1-2.977-4.102 8.305 8.305 0 0 1-.312-2.543V78.92c0-.305 0-.61.041-.916a7.57 7.57 0 0 1 .156-.888 7.676 7.676 0 0 1 1.58-3.18 7.788 7.788 0 0 1 2.78-2.081 7.916 7.916 0 0 1 3.335-.63h11.228a2.393 2.393 0 0 1 1.478.413c.422.299.741.72.915 1.207.143.478.194.98.149 1.478v.732a4.975 4.975 0 0 0 0 .712c.06.463.253.899.556 1.254.304.338.704.575 1.146.678.222.057.45.08.678.068h18.727c.327-.036.642-.145.922-.319a2.406 2.406 0 0 0 1.051-1.511c.05-.303.071-.61.061-.916v-.895c-.014-.292 0-.585.04-.874.048-.283.142-.555.278-.807a2.423 2.423 0 0 1 1.2-1.058 3.786 3.786 0 0 1 1.492-.156h7.858-7.817a3.731 3.731 0 0 0-1.465.163c-.496.195-.907.56-1.159 1.03a2.21 2.21 0 0 0-.271.78 5.06 5.06 0 0 0-.041.861v.895c.015.31-.003.622-.054.929a2.439 2.439 0 0 1-1.085 1.566c-.289.184-.616.3-.956.34H226.501a2.373 2.373 0 0 1-1.892-.814 2.504 2.504 0 0 1-.59-1.356 5.264 5.264 0 0 1 0-.733v-.732a3.921 3.921 0 0 0-.142-1.437 2.385 2.385 0 0 0-.875-1.14 2.239 2.239 0 0 0-1.397-.386h-11.288a7.704 7.704 0 0 0-3.275.624 7.453 7.453 0 0 0-4.265 5.153c-.074.285-.095.583-.149.874-.054.292-.034.59-.04.895V198.56a8 8 0 0 0 .305 2.481 7.455 7.455 0 0 0 2.895 3.993 7.691 7.691 0 0 0 4.746 1.309h48.958a7.396 7.396 0 0 0 4.231-1.431 7.993 7.993 0 0 0 1.525-1.681 7.49 7.49 0 0 0 .929-2.034c.2-.729.296-1.482.285-2.237v-11.289c0-23.622 0-44.904.034-62.769.034-17.866.034-32.334.047-42.328v-3.54a7.67 7.67 0 0 0-.542-3.016 7.52 7.52 0 0 0-1.41-2.23 7.354 7.354 0 0 0-1.695-1.357 7.218 7.218 0 0 0-2.794-.99 5.761 5.761 0 0 0-.759-.067l-.258-.028Z"/><path fill="#263238" d="M260.536 83.476s-1.241.068-2.766.081c-1.526.014-2.793-.007-2.793-.007s1.24-.067 2.773-.08c1.532-.014 2.786-.028 2.786.006ZM260.55 84.906s-1.241.068-2.773.082c-1.533.013-2.767 0-2.767 0s1.241-.068 2.767-.082c1.525-.013 2.773-.047 2.773 0ZM260.557 86.31c0 .034-1.234.068-2.767.081-1.532.014-2.766 0-2.766 0s1.234-.068 2.766-.081c1.533-.014 2.767-.048 2.767 0ZM210.161 87.93H211.781l-.034.034v-1.349a.465.465 0 0 1 .4-.366h.563a.461.461 0 0 1 .387.46v1.248l-.055-.054h1.492l-.054.061v-2.38a.462.462 0 0 0-.21-.352l-.678-.678-.631-.624-.305-.298c-.102-.102-.19-.21-.312-.23a.398.398 0 0 0-.339.06c-.088.082-.19.19-.278.278l-.536.536c-.339.353-.678.678-.942.976a1.029 1.029 0 0 0-.075.556V87.72a.924.924 0 0 1 0 .197v-2.394c0-.112.03-.222.089-.318.271-.332.603-.638.942-.997l.529-.542c.092-.1.189-.195.291-.285a.51.51 0 0 1 .434-.088.869.869 0 0 1 .353.257l.305.299.637.623.678.638c.062.056.118.117.17.183a.474.474 0 0 1 .074.25v2.394h-1.607v-1.302a.357.357 0 0 0-.298-.366h-.542a.357.357 0 0 0-.319.292c-.01.158-.01.316 0 .474v.895H210.161Z"/><path fill="#B3EF9F" d="M247.751 117.797c1.059-6.838-3.626-13.24-10.465-14.299-6.838-1.058-13.24 3.627-14.298 10.466-1.059 6.838 3.626 13.24 10.465 14.298 6.838 1.059 13.24-3.626 14.298-10.465Z"/><path fill="#fff" d="M239.681 120.942h-8.597v-1.058a4.298 4.298 0 0 1 8.597 0v1.058Z"/><path fill="#fff" d="M235.382 115.891a2.529 2.529 0 1 0 0-5.057 2.529 2.529 0 0 0 0 5.057Z"/><path fill="#EBEBEB" d="M255.282 142.76h-42.226v8.624h42.226v-8.624ZM255.282 155.276h-42.226v8.624h42.226v-8.624Z"/><path fill="#B3EF9F" d="M245.132 181.04h-21.194a4.305 4.305 0 0 1-4.312-4.312 4.306 4.306 0 0 1 2.662-3.984 4.302 4.302 0 0 1 1.65-.328h21.194a4.306 4.306 0 0 1 3.984 2.662 4.306 4.306 0 0 1 0 3.3 4.306 4.306 0 0 1-2.334 2.334 4.306 4.306 0 0 1-1.65.328Z"/><path fill="#263238" d="M247.769 137.567c0 .21-5.932.386-13.248.386-7.315 0-13.255-.176-13.255-.386 0-.21 5.933-.394 13.255-.394 7.323 0 13.248.177 13.248.394Z"/><path fill="#E0E0E0" d="M218.887 148.971h-1.878a.322.322 0 0 1-.235-.093.336.336 0 0 1-.098-.233 1.262 1.262 0 0 1 .361-.882 1.237 1.237 0 0 1 .88-.365h.041a1.246 1.246 0 0 1 1.247 1.247.325.325 0 0 1-.318.326Z"/><path fill="#E0E0E0" d="M218.697 146.747a.744.744 0 0 1-.891.731.74.74 0 0 1-.586-.586.749.749 0 0 1 .317-.765.744.744 0 0 1 .7-.071.737.737 0 0 1 .46.691ZM219.063 159.724h-2.224v1.573h2.224v-1.573Z"/><path fill="#E0E0E0" d="M219.314 160.063h-.746v-.488a.626.626 0 0 0-.185-.446.626.626 0 0 0-.891 0 .626.626 0 0 0-.185.446v.488h-.746v-.488a1.378 1.378 0 0 1 1.376-1.377 1.377 1.377 0 0 1 1.377 1.377v.488Z"/><path fill="#FAFAFA" d="M210.303 44.776h-7.248a5.465 5.465 0 0 0-2.183.237 3.393 3.393 0 0 0-1.722 1.532c-.201.36-.339.752-.407 1.16-.053.42-.067.845-.04 1.267v1.356c.022.454-.008.91-.089 1.356a3.637 3.637 0 0 1-1.613 2.333 3.423 3.423 0 0 1-1.424.508c-.515.04-1.017 0-1.539 0h-26.3a3.978 3.978 0 0 1-1.051-.102 3.444 3.444 0 0 1-1.803-1.118 3.621 3.621 0 0 1-.881-1.966 7.279 7.279 0 0 1-.041-1.085v-1.03a5.795 5.795 0 0 0-.217-2.136 3.486 3.486 0 0 0-1.295-1.695 3.39 3.39 0 0 0-2.088-.577h-16.72a11.092 11.092 0 0 0-8.929 3.96 11.22 11.22 0 0 0-2.298 4.637c-.109.42-.143.868-.224 1.302-.082.434-.034.74-.048 1.112v178.721a11.599 11.599 0 0 0 .448 3.519 11.125 11.125 0 0 0 4.305 5.939 11.492 11.492 0 0 0 7.099 1.953h65.915c2.339 0 4.692.04 7.004 0a10.996 10.996 0 0 0 6.278-2.434 11.902 11.902 0 0 0 2.264-2.509 10.95 10.95 0 0 0 1.39-3.065c.3-1.083.441-2.205.421-3.329v-16.733c0-35.168.034-66.83.047-93.428.014-26.598.054-48.138.068-62.993V56.2a11.523 11.523 0 0 0-.814-4.495 11.067 11.067 0 0 0-2.101-3.316 10.54 10.54 0 0 0-2.523-2.034 10.69 10.69 0 0 0-4.156-1.45 9.08 9.08 0 0 0-1.132-.102H214.758l-4.455-.027Z"/><path fill="#263238" d="M216.385 44.816h.386c.377.002.753.029 1.126.082 1.48.182 2.905.674 4.183 1.444a10.783 10.783 0 0 1 2.543 2.034c.9.974 1.619 2.101 2.122 3.329a11.63 11.63 0 0 1 .834 4.522v178.09a12.013 12.013 0 0 1-.427 3.39 11.397 11.397 0 0 1-1.424 3.139 11.974 11.974 0 0 1-2.319 2.577 11.285 11.285 0 0 1-6.441 2.502c-2.332.067-4.658 0-7.004 0h-65.678a11.81 11.81 0 0 1-7.261-2.034 11.393 11.393 0 0 1-4.414-6.102 12.286 12.286 0 0 1-.468-3.77V56.051c0-.448.034-.902.061-1.356.028-.455.109-.895.224-1.356a11.52 11.52 0 0 1 2.346-4.746 11.305 11.305 0 0 1 9.092-4.028h16.672a3.561 3.561 0 0 1 2.197.61 3.69 3.69 0 0 1 1.356 1.797 5.93 5.93 0 0 1 .223 2.197v1.085c-.024.354-.024.71 0 1.064.087.69.377 1.34.834 1.865.444.52 1.039.89 1.702 1.057a4.14 4.14 0 0 0 1.004.102H195.597a3.302 3.302 0 0 0 1.356-.474 3.509 3.509 0 0 0 1.56-2.245c.08-.447.11-.902.088-1.356v-1.356a7.575 7.575 0 0 1 .054-1.295c.071-.418.213-.822.421-1.193a3.515 3.515 0 0 1 1.783-1.573 5.536 5.536 0 0 1 2.21-.237 5.542 5.542 0 0 0-2.176.23c-.733.3-1.34.84-1.723 1.533a3.697 3.697 0 0 0-.4 1.159 6.697 6.697 0 0 0-.054 1.282v1.355c.023.454-.007.91-.088 1.357a3.657 3.657 0 0 1-1.614 2.332 3.44 3.44 0 0 1-1.417.502c-.515.047-1.017 0-1.532 0h-26.096a3.903 3.903 0 0 1-1.044-.109 3.48 3.48 0 0 1-1.804-1.112 3.732 3.732 0 0 1-.881-1.96 8.284 8.284 0 0 1 0-1.09v-1.086a5.927 5.927 0 0 0-.217-2.135 3.466 3.466 0 0 0-1.295-1.689 3.389 3.389 0 0 0-2.082-.576h-16.678a11.06 11.06 0 0 0-8.902 3.953 11.067 11.067 0 0 0-2.292 4.624c-.115.427-.149.868-.224 1.301-.074.434-.054.882-.061 1.356V234.066a12.274 12.274 0 0 0 .454 3.682 11.095 11.095 0 0 0 4.299 5.932 11.426 11.426 0 0 0 7.078 1.946h65.705c2.339 0 4.685.041 6.99 0a10.919 10.919 0 0 0 6.258-2.427 11.68 11.68 0 0 0 2.265-2.509 10.851 10.851 0 0 0 1.356-3.057c.302-1.079.444-2.196.42-3.316v-16.712c0-35.094.034-66.702.054-93.253.021-26.55.048-48.03.061-62.877V56.22a11.432 11.432 0 0 0-.813-4.488 11.02 11.02 0 0 0-2.095-3.309 10.72 10.72 0 0 0-2.516-2.034 10.573 10.573 0 0 0-4.149-1.464 9.103 9.103 0 0 0-1.125-.102l-.346-.007Z"/><path fill="#263238" d="M218.541 62.865c0 .047-1.837.101-4.109.122-2.271.02-4.115 0-4.115-.055 0-.054 1.837-.101 4.108-.122 2.272-.02 4.116.007 4.116.055ZM218.561 64.973c0 .048-1.844.102-4.115.115-2.272.014-4.116 0-4.116-.047s1.844-.102 4.116-.122c2.271-.02 4.115 0 4.115.054ZM218.575 67.075c0 .047-1.838.102-4.109.122-2.271.02-4.115 0-4.115-.054 0-.055 1.837-.102 4.108-.122 2.272-.02 4.116.007 4.116.054ZM143.703 69.475h.651l1.756-.04-.047.054v-2.014a.677.677 0 0 1 .59-.536h.84a.677.677 0 0 1 .577.678v1.858l-.082-.081h2.217l-.088.088v-3.444a.722.722 0 0 0-.312-.53l-.969-.955-.983-.997-.455-.447c-.156-.15-.278-.305-.454-.34a.61.61 0 0 0-.508.096c-.136.115-.278.278-.414.406l-.793.8c-.502.523-1.024.997-1.404 1.445-.11.26-.147.546-.108.827v2.847c.01.095.01.19 0 .285V65.922a.82.82 0 0 1 .122-.467c.407-.502.895-.95 1.403-1.478l.787-.814c.142-.136.257-.278.427-.42a.768.768 0 0 1 .644-.13c.208.075.391.207.529.38l.454.448c.312.298.624.61.943.922l.861.95c.089.082.171.173.244.27a.73.73 0 0 1 .122.373v3.526h-2.387v-1.939a.538.538 0 0 0-.447-.536h-.807a.552.552 0 0 0-.475.434V69.475h-2.298a.687.687 0 0 1-.136 0Z"/><path fill="#F5F5F5" d="M212.154 80.601h-65.793a5.96 5.96 0 0 0-5.96 5.96v2.217a5.96 5.96 0 0 0 5.96 5.96h65.793a5.96 5.96 0 0 0 5.96-5.96V86.56a5.96 5.96 0 0 0-5.96-5.96Z"/><path fill="#263238" d="m212.147 94.737.448-.033a5.915 5.915 0 0 0 3.153-1.234 5.879 5.879 0 0 0 1.769-2.245c.24-.521.398-1.077.468-1.647.06-.633.078-1.27.054-1.905a12.619 12.619 0 0 0-.088-2.075 5.894 5.894 0 0 0-4.692-4.746 16.08 16.08 0 0 0-2.712-.102h-2.868l-61.325.041a5.825 5.825 0 0 0-5.79 5.33c-.054.677 0 1.45 0 2.169a6.77 6.77 0 0 0 .217 2.101 5.905 5.905 0 0 0 2.414 3.295c.572.38 1.208.65 1.878.8.67.13 1.352.182 2.034.156h39.649l18.584.048h6.814-6.814l-18.584.04H147.1a8.903 8.903 0 0 1-2.109-.155 5.998 5.998 0 0 1-1.973-.841 6.1 6.1 0 0 1-2.528-3.458 6.947 6.947 0 0 1-.231-2.176v-2.19a6.1 6.1 0 0 1 6.102-5.6l61.325.04h2.868c.906-.035 1.813.004 2.712.116a6.06 6.06 0 0 1 4.807 4.956c.084.695.111 1.395.081 2.095.016.64-.007 1.28-.067 1.919a5.972 5.972 0 0 1-2.312 3.946 6.097 6.097 0 0 1-1.906.969 5.96 5.96 0 0 1-1.295.224c-.271.17-.427.162-.427.162Z"/><path fill="#263238" d="M213.347 87.334s0-.224-.135-.61a2.535 2.535 0 0 0-.936-1.356 2.435 2.435 0 1 0 0 3.905c.455-.334.785-.812.936-1.356.115-.38.108-.61.135-.61.028 0 0 .054 0 .162.007.16-.007.319-.04.475a2.533 2.533 0 0 1-.929 1.478 2.646 2.646 0 0 1-2.529.413 2.713 2.713 0 0 1 0-5.057 2.658 2.658 0 0 1 2.529.413c.474.368.803.892.929 1.478.033.156.047.316.04.475.014.126.014.19 0 .19Z"/><path fill="#263238" d="M214.758 91.748a5.175 5.175 0 0 1-1.255-1.14 4.983 4.983 0 0 1-1.037-1.356c.479.31.902.698 1.254 1.146.42.388.771.844 1.038 1.35Z"/><path fill="#E0E0E0" d="M150.89 86.262h-1.356v-.359h3.187v.36h-1.356v3.586h-.421l-.054-3.587ZM155.548 88.486h-2.482a1.112 1.112 0 0 0 .369.758 1.107 1.107 0 0 0 .798.273 1.157 1.157 0 0 0 .908-.393l.224.264a1.567 1.567 0 0 1-2.712-1.03 1.436 1.436 0 0 1 .879-1.396c.181-.076.376-.113.572-.11a1.412 1.412 0 0 1 1.43 1.505l.014.13Zm-2.482-.298h2.102a1.051 1.051 0 0 0-2.102 0ZM158.172 89.842l-.943-1.24-.949 1.24h-.447l1.173-1.546-1.119-1.444h.454l.888 1.16.888-1.16h.441l-1.112 1.444 1.18 1.52-.454.026ZM160.857 89.652a.97.97 0 0 1-.631.21.788.788 0 0 1-.868-.86v-1.79h-.529v-.34h.55v-.677h.4v.678h.901v.339h-.901v1.762a.47.47 0 0 0 .305.508.474.474 0 0 0 .21.028.679.679 0 0 0 .441-.15l.122.292Z"/><path fill="#B3EF9F" d="M193.407 108.203c0 .081-5.688.142-12.698.142-7.011 0-12.706-.061-12.706-.142 0-.082 5.688-.15 12.706-.15 7.017 0 12.698.068 12.698.15Z"/><path fill="#263238" d="M213.666 113.416c0 .082-10.224.143-22.828.143s-22.835-.061-22.835-.143c0-.081 10.224-.149 22.835-.149s22.828.068 22.828.149ZM213.13 117.138c0 .082-10.102.143-22.563.143-12.462 0-22.564-.061-22.564-.143 0-.081 10.102-.142 22.564-.142 12.461 0 22.563.061 22.563.142ZM194.635 120.691c0 .082-5.967.143-13.323.143-7.356 0-13.323-.061-13.323-.143 0-.081 5.967-.142 13.323-.142 7.356 0 13.323.061 13.323.142Z"/><path fill="#B3EF9F" d="M193.407 136.543c0 .074-5.688.142-12.698.142-7.011 0-12.706-.068-12.706-.142 0-.075 5.688-.149 12.706-.149 7.017 0 12.698.04 12.698.149Z"/><path fill="#263238" d="M213.666 141.757c0 .074-10.224.142-22.828.142s-22.835-.068-22.835-.142c0-.075 10.224-.149 22.835-.149s22.828.067 22.828.149ZM213.13 145.479c0 .081-10.102.142-22.563.142-12.462 0-22.564-.061-22.564-.142 0-.081 10.102-.149 22.564-.149 12.461 0 22.563.068 22.563.149ZM194.635 149.032c0 .074-5.967.142-13.323.142-7.356 0-13.323-.068-13.323-.142 0-.075 5.967-.15 13.323-.15 7.356 0 13.323.068 13.323.15Z"/><path fill="#B3EF9F" d="M193.407 164.91c0 .082-5.688.15-12.698.15-7.011 0-12.706-.068-12.706-.15 0-.081 5.688-.142 12.706-.142 7.017 0 12.698.034 12.698.142Z"/><path fill="#263238" d="M213.666 170.09c0 .082-10.224.149-22.828.149s-22.835-.067-22.835-.149c0-.081 10.224-.142 22.835-.142s22.828.068 22.828.142ZM213.13 173.819c0 .075-10.102.143-22.563.143-12.462 0-22.564-.068-22.564-.143 0-.074 10.102-.149 22.564-.149 12.461 0 22.563.054 22.563.149ZM194.635 177.365c0 .082-5.967.149-13.323.149-7.356 0-13.323-.067-13.323-.149 0-.081 5.967-.142 13.323-.142 7.356 0 13.323.068 13.323.142Z"/><path fill="#B3EF9F" d="M193.407 193.217c0 .081-5.688.142-12.698.142-7.011 0-12.706-.061-12.706-.142 0-.082 5.688-.143 12.706-.143 7.017 0 12.698.061 12.698.143Z"/><path fill="#263238" d="M213.666 198.431c0 .081-10.224.142-22.828.142s-22.835-.061-22.835-.142c0-.082 10.224-.143 22.835-.143s22.828.061 22.828.143ZM213.13 202.153c0 .081-10.102.149-22.563.149-12.462 0-22.564-.068-22.564-.149 0-.081 10.102-.143 22.564-.143 12.461 0 22.563.068 22.563.143ZM194.635 205.706c0 .081-5.967.149-13.323.149-7.356 0-13.323-.068-13.323-.149 0-.082 5.967-.143 13.323-.143 7.356 0 13.323.061 13.323.143Z"/><path fill="#B3EF9F" d="M193.407 221.361c0 .074-5.688.142-12.698.142-7.011 0-12.706-.068-12.706-.142 0-.075 5.688-.149 12.706-.149 7.017 0 12.698.067 12.698.149Z"/><path fill="#263238" d="M213.666 226.608c0 .075-10.224.143-22.828.143s-22.835-.068-22.835-.143c0-.074 10.224-.149 22.835-.149s22.828.034 22.828.149ZM213.13 230.297c0 .081-10.102.142-22.563.142-12.462 0-22.564-.061-22.564-.142 0-.082 10.102-.143 22.564-.143 12.461 0 22.563.061 22.563.143ZM194.635 233.849c0 .082-5.967.143-13.323.143-7.356 0-13.323-.061-13.323-.143 0-.081 5.967-.149 13.323-.149 7.356 0 13.323.068 13.323.149Z"/><path fill="#B3EF9F" d="m140.795 107.989-.087 15.553 20.692.116.087-15.553-20.692-.116Z"/><path fill="#B3EF9F" d="m140.706 123.546 7.282-9.628 4.448 6.075 3.051-3.221 5.919 6.889-20.7-.115ZM154.375 112.765a1.637 1.637 0 0 1-1.012 1.511 1.629 1.629 0 0 1-1.782-.36 1.63 1.63 0 0 1-.346-1.785 1.637 1.637 0 0 1 2.668-.518 1.62 1.62 0 0 1 .472 1.152Z"/><path fill="#000" d="m140.706 123.546 7.282-9.628 4.448 6.075 3.051-3.221 5.919 6.889-20.7-.115ZM154.375 112.765a1.637 1.637 0 0 1-1.012 1.511 1.629 1.629 0 0 1-1.782-.36 1.63 1.63 0 0 1-.346-1.785 1.637 1.637 0 0 1 2.668-.518 1.62 1.62 0 0 1 .472 1.152Z" opacity=".2"/><path fill="#B3EF9F" d="m140.801 135.971-.087 15.553 20.693.115.086-15.553-20.692-.115Z"/><path fill="#B3EF9F" d="m140.706 151.52 7.282-9.628 4.448 6.075 3.051-3.214 5.919 6.889-20.7-.122ZM154.375 140.747a1.631 1.631 0 0 1-1.017 1.506 1.633 1.633 0 1 1-.603-3.147 1.625 1.625 0 0 1 1.62 1.641Z"/><path fill="#000" d="m140.706 151.52 7.282-9.628 4.448 6.075 3.051-3.214 5.919 6.889-20.7-.122ZM154.375 140.747a1.631 1.631 0 0 1-1.017 1.506 1.633 1.633 0 1 1-.603-3.147 1.625 1.625 0 0 1 1.62 1.641Z" opacity=".2"/><path fill="#B3EF9F" d="m140.794 163.952-.087 15.553 20.692.116.087-15.553-20.692-.116Z"/><path fill="#B3EF9F" d="m140.706 179.501 7.282-9.628 4.448 6.075 3.051-3.22 5.919 6.888-20.7-.115ZM154.375 168.727a1.632 1.632 0 0 1-1.962 1.594 1.638 1.638 0 0 1-1.277-1.292 1.636 1.636 0 0 1 1.619-1.942 1.641 1.641 0 0 1 1.62 1.64Z"/><path fill="#000" d="m140.706 179.501 7.282-9.628 4.448 6.075 3.051-3.22 5.919 6.888-20.7-.115ZM154.375 168.727a1.632 1.632 0 0 1-1.962 1.594 1.638 1.638 0 0 1-1.277-1.292 1.636 1.636 0 0 1 1.619-1.942 1.641 1.641 0 0 1 1.62 1.64Z" opacity=".2"/><path fill="#B3EF9F" d="m140.8 191.927-.086 15.553 20.692.115.087-15.553-20.693-.115Z"/><path fill="#B3EF9F" d="m140.706 207.482 7.282-9.628 4.448 6.075 3.051-3.22 5.919 6.888-20.7-.115ZM154.375 196.702a1.634 1.634 0 1 1-1.62-1.634 1.624 1.624 0 0 1 1.62 1.634Z"/><path fill="#000" d="m140.706 207.482 7.282-9.628 4.448 6.075 3.051-3.22 5.919 6.888-20.7-.115ZM154.375 196.702a1.634 1.634 0 1 1-1.62-1.634 1.624 1.624 0 0 1 1.62 1.634Z" opacity=".2"/><path fill="#B3EF9F" d="m140.793 219.772-.087 15.553 20.693.115.086-15.553-20.692-.115Z"/><path fill="#B3EF9F" d="m140.706 235.321 7.282-9.628 4.448 6.075 3.051-3.214 5.919 6.882-20.7-.115ZM154.375 224.574a1.632 1.632 0 0 1-1.962 1.594 1.638 1.638 0 0 1-1.277-1.292 1.636 1.636 0 0 1 1.619-1.942 1.641 1.641 0 0 1 1.62 1.64Z"/><path fill="#000" d="m140.706 235.321 7.282-9.628 4.448 6.075 3.051-3.214 5.919 6.882-20.7-.115ZM154.375 224.574a1.632 1.632 0 0 1-1.962 1.594 1.638 1.638 0 0 1-1.277-1.292 1.636 1.636 0 0 1 1.619-1.942 1.641 1.641 0 0 1 1.62 1.64Z" opacity=".2"/><path fill="#B3EF9F" d="M303.534 83.02a7.376 7.376 0 1 0-14.362-3.374 7.376 7.376 0 1 0 14.362 3.374Z"/><path fill="#fff" d="M295.901 83.74a.32.32 0 0 1-.211-.081l-2.488-2.034a.342.342 0 0 1 .434-.529l2.217 1.83 3.153-3.857a.353.353 0 0 1 .481-.048.34.34 0 0 1 .048.475l-3.39 4.122a.324.324 0 0 1-.231.122h-.013Z"/><path fill="#B3EF9F" d="M264.516 81.34c5.587 0 10.116-4.529 10.116-10.116 0-5.586-4.529-10.115-10.116-10.115S254.4 65.638 254.4 71.224c0 5.587 4.529 10.116 10.116 10.116Z"/><path fill="#fff" d="M263.906 74.736a.678.678 0 0 1-.427-.149l-3.39-2.807a.678.678 0 0 1 .363-1.195.678.678 0 0 1 .498.151l2.874 2.367 4.177-5.147a.678.678 0 0 1 1.195.364.673.673 0 0 1-.151.498l-4.61 5.647a.72.72 0 0 1-.461.244l-.068.027Z"/><path fill="#FFBE9D" d="m137.106 139.221.407-1.6a6.105 6.105 0 0 0-.068-3.194l-1.674-5.586a2.1 2.1 0 0 0-.963-1.214c-1.275-.732-3.79-2.142-4.007-1.966-1.539 1.281 1.905 3.539 1.905 3.539s1.356 1.485.278 2.583c-1.2 1.248-3.444-1.491-3.444-1.491s.115-.285.224-.231a4.449 4.449 0 0 0 2.162.929v-1.817l-2.034-1.275a2.034 2.034 0 0 0-1.512-.271l-.678.156a1.775 1.775 0 0 0-1.111.753l-.678 1.003-.285.386a1.277 1.277 0 0 0-.136 1.289l.326.678-.448.623a1.924 1.924 0 0 0-.224 1.79l3.438 4.746 5.085 8.306 5.505-5.912-2.068-2.224Z"/><path fill="#EB996E" d="M126.448 134.312a1.056 1.056 0 0 1-.183-.346.948.948 0 0 1 .163-.881v-.041l-.054-.122a8.319 8.319 0 0 0-.739-1.356c.165.485.371.954.617 1.404l.061.122v-.075a1 1 0 0 0-.15.997c.116.23.278.319.285.298ZM126.869 128.149a1.541 1.541 0 0 0-.109.949c.188.776.501 1.516.929 2.19a2.8 2.8 0 0 1 .319.638c.059.22.073.451.04.678-.066.343-.023.699.122 1.017.169.276.402.509.678.678a1.132 1.132 0 0 1-.793-.624 1.66 1.66 0 0 1-.183-1.099 1.828 1.828 0 0 0-.047-.603 2.848 2.848 0 0 0-.306-.59 6.451 6.451 0 0 1-.895-2.271c-.101-.651.211-.997.245-.963ZM129.581 130.21a4.437 4.437 0 0 0-.258-.759c-.21-.393-.434-.678-.387-.732.048-.055.346.203.577.637.23.434.135.881.068.854Z"/><path fill="#455A64" d="m138.991 167.629 2.095 2.631 10.889-13.079-14.258-18.753-7.045 5.525 8.319 23.676Z"/><path fill="#B3EF9F" d="m187.427 294.178.902 21.248 11.479-.257-.861-21.289-11.52.298Z"/><path fill="#263238" d="M193.957 314.497c.095 0-.082-4.657-.394-10.393-.311-5.736-.678-10.38-.745-10.374-.068.007.081 4.658.4 10.394.318 5.736.65 10.38.739 10.373Z"/><path fill="#263238" d="m188.268 313.962 11.479-.292.061 1.499-11.479.257-.061-1.464ZM199.53 308.368s-.088-.183-.312-.454a7.946 7.946 0 0 0-1.071-1.044 8.116 8.116 0 0 0-1.912-1.159 6.098 6.098 0 0 0-7.079 1.661 5.235 5.235 0 0 0-.786 1.281 1.56 1.56 0 0 0-.156.529c.331-.581.707-1.134 1.125-1.654a6.1 6.1 0 0 1 4.218-1.96 6.96 6.96 0 0 1 4.434 1.499c.996.732 1.491 1.342 1.539 1.301Z"/><path fill="#000" d="m199.191 299.934.095 2.346-11.506.203-.074-1.763 11.485-.786Z" opacity=".3"/><path fill="#B3EF9F" d="m160.416 295.446.563 12.936s-12.957 4.915-13.086 7.316l25.086-.184-.04-20.19-12.523.122Z"/><path fill="#E0E0E0" d="M168.572 307.29a1.027 1.027 0 0 1 .719 1.173.998.998 0 0 1-1.153.732 1.084 1.084 0 0 1-.759-1.227 1.024 1.024 0 0 1 1.288-.623"/><path fill="#263238" d="M173.006 315.508v-2.034l-24.306.922s-1.125.495-.99 1.288l25.296-.176ZM160.735 308.47c0 .122.623.17 1.234.563.61.393.942.908 1.05.861.109-.048-.074-.76-.82-1.221-.746-.461-1.464-.318-1.464-.203ZM158.104 309.582c0 .122.509.325.936.847.427.523.549 1.072.678 1.065.128-.007.196-.678-.346-1.356-.543-.678-1.261-.671-1.268-.556ZM156.619 312.769c.115 0 .285-.59-.04-1.268-.326-.678-.902-.936-.95-.834-.047.102.305.461.563 1.024.258.562.305 1.071.427 1.078ZM160.952 305.487c.054.108.617-.068 1.315 0s1.247.257 1.308.149c.061-.109-.461-.542-1.288-.583-.827-.041-1.396.332-1.335.434ZM160.484 302.7c.412.116.848.116 1.261 0 .456-.086.9-.227 1.322-.42.252-.111.495-.243.725-.393.143-.078.271-.178.38-.299a.52.52 0 0 0 .054-.678.676.676 0 0 0-.542-.278 1.624 1.624 0 0 0-.475.068 5.096 5.096 0 0 0-.786.278 4.369 4.369 0 0 0-1.16.773c-.583.549-.779 1.01-.739 1.037.041.028.339-.352.929-.8a5.155 5.155 0 0 1 1.126-.678c.236-.092.478-.167.725-.223.271-.075.502-.082.57.04.068.122 0 .061 0 .143a1.496 1.496 0 0 1-.278.217 5.746 5.746 0 0 1-.678.386 6.859 6.859 0 0 1-1.221.482c-.412.085-.818.2-1.213.345Z"/><path fill="#263238" d="M160.64 302.877c.047 0 .291-.428.325-1.228a3.921 3.921 0 0 0-.183-1.356 3.563 3.563 0 0 0-.325-.766 1.059 1.059 0 0 0-.814-.637.598.598 0 0 0-.529.359 1.716 1.716 0 0 0-.122.461 2.61 2.61 0 0 0 0 .855c.072.475.261.924.549 1.308.495.678 1.017.793 1.024.753.007-.041-.393-.299-.773-.922a2.781 2.781 0 0 1-.393-1.926c.041-.264.136-.481.237-.454.102.027.339.196.448.407.124.217.23.444.318.678.146.406.233.83.258 1.261.075.725-.081 1.186-.02 1.207Z"/><path fill="#000" d="m173.013 303.08-.027 2.868H160.87v-2.604l12.143-.264Z" opacity=".3"/><path fill="#FFBE9D" d="m213.619 87.815 1.796 6.97s.678 3.85-1.125 3.844c-1.587 0-1.743-2.068-1.743-2.068s.794-4.217-1.281-3.98c-.292.034-1.051 2.943-1.417 4.42a2.198 2.198 0 0 0 .217 1.6l2.99 5.296a6.344 6.344 0 0 0 2.346 2.353l1.498.847.197 3.146 8.414.136-2.563-9.818-1.071-5.986a2.036 2.036 0 0 0-1.505-1.12l-.794-.114-.298-.76a1.36 1.36 0 0 0-1.071-.827l-.488-.06-.678-1.703c-.231-.562-1.879-4.271-2.489-4.264-.007 0-1.376.373-.935 2.088Z"/><path fill="#EB996E" d="M219.626 96.256a5.558 5.558 0 0 0-.156-.766 2.928 2.928 0 0 0-1.146-1.458 8.171 8.171 0 0 1-.631-1.824 2.262 2.262 0 0 1-.088-.793s.055.298.183.766c.176.606.403 1.196.678 1.763.122.109.272.217.414.34.339.322.587.73.719 1.179.053.187.081.381.081.576a.626.626 0 0 1-.054.217ZM220.907 95.544a1.132 1.132 0 0 0-.122-.38.986.986 0 0 0-.78-.508h-.047v-.04l-.048-.13a9.054 9.054 0 0 1-.481-1.525c.25.47.454.963.61 1.471l.055.136-.062-.048a1.053 1.053 0 0 1 .855.604c.095.25.04.434.02.42Z"/><path fill="#FFBE9D" d="m171.372 129.261 15.262-.197-1.702-12.97s1.045-.223 1.112-5.878c.068-5.654.333-15.255.333-15.255a19.664 19.664 0 0 0-19.744 2.482l-.84.644 5.579 31.174Z"/><path fill="#FFBE9D" d="M167.569 105.023c-.095-.041-3.885-1.153-3.763 2.712.122 3.864 3.98 2.942 3.98 2.834 0-.109-.217-5.546-.217-5.546ZM185.719 104.216c.095-.048 3.539-.977 3.39 2.888-.149 3.865-3.98 2.949-3.98 2.834 0-.115.59-5.722.59-5.722Z"/><path fill="#263238" d="M166.315 104.568c.576 3.241.461 4.943.996 7.106.848 3.39 2.543 6.048 5.628 7.756 3.085 1.709 7.254 1.675 9.905-.678 1.838-1.614 3.139-3.437 3.39-5.871.251-2.434.549-6.74.563-9.181 0-4.413.332-8.63.332-8.63l-12.611-2.285-7.153 4.325-1.05 7.458ZM179.319 121.403a5.677 5.677 0 0 1-4.326-.481c.041-.095.97.196 2.156.325.725.014 1.45.066 2.17.156Z"/><path fill="#263238" d="M166.925 110.094c-.373-3.315-.61-7.112-1.132-10.61-.19-1.316-.678-3.208-.543-4.53a10.92 10.92 0 0 1 .827-3.885 5.46 5.46 0 0 1 8.509-1.715 4.065 4.065 0 0 1 4.337-1.757 4.069 4.069 0 0 1 3.121 3.486 2.843 2.843 0 0 1 4.613 1.023c.226.583.254 1.224.079 1.825a2.77 2.77 0 0 1 2.312 2.962c-.037.46-.189.902-.441 1.289-.583.901-1.634 1.396-2.278 2.251a3.243 3.243 0 0 0-.196 3.491"/><path fill="#455A64" d="M184.465 98.1a.988.988 0 0 1-.143.366 2.539 2.539 0 0 1-.732.82 2.632 2.632 0 0 1-1.641.523 2.791 2.791 0 0 1-2.034-.95l.265-.067a2.62 2.62 0 0 1-1.682 1.932c-.466.181-.97.243-1.466.181a3.018 3.018 0 0 1-1.375-.54 4.259 4.259 0 0 1-1.6-2.095h.305a3.553 3.553 0 0 1-2.854 1.566 3.27 3.27 0 0 1-2.4-.983 3.389 3.389 0 0 1-.875-1.478 1.243 1.243 0 0 1-.067-.61s.047.21.183.576c.192.517.503.981.908 1.356a3.108 3.108 0 0 0 2.238.84 3.263 3.263 0 0 0 2.576-1.45l.19-.292.115.326c.284.776.8 1.446 1.478 1.918.361.258.78.423 1.22.48.439.058.887.008 1.302-.148a2.329 2.329 0 0 0 1.505-1.667l.061-.32.204.245a2.576 2.576 0 0 0 1.803.895 2.51 2.51 0 0 0 1.526-.414c.393-.268.729-.611.99-1.01ZM184.404 96.568a3.467 3.467 0 0 0-.536-1.403 2.314 2.314 0 0 0-1.356-.896 2.376 2.376 0 0 0-1.919.373l-.305.217v-.38a2.74 2.74 0 0 0-.129-1.111 3.026 3.026 0 0 0-1.546-1.804 2.968 2.968 0 0 0-1.966-.17 4.241 4.241 0 0 0-1.64.923c.069-.165.176-.31.311-.427a3.077 3.077 0 0 1 1.261-.74 3.126 3.126 0 0 1 2.17.123 3.255 3.255 0 0 1 1.749 1.993c.129.403.175.827.136 1.248l-.271-.156a2.712 2.712 0 0 1 2.203-.38 2.478 2.478 0 0 1 1.817 2.17c.082.284.041.427.021.42ZM176.369 96.683c-.047 0 0-.217 0-.529a2.474 2.474 0 0 0-.393-1.145c-.251-.4-.556-.807-.725-1.024a.371.371 0 0 0-.407-.075s0-.088.081-.156a.427.427 0 0 1 .475 0c.16.133.307.28.44.44.16.19.307.39.441.598.263.4.383.878.339 1.356-.061.38-.217.556-.251.535ZM168.871 91.822c-.041 0 0-.298.237-.678.143-.241.337-.447.569-.604a1.493 1.493 0 0 1 1.024-.223 2.451 2.451 0 0 1 1.533.956c.284.36.413.603.379.637-.034.034-.244-.163-.563-.461a2.616 2.616 0 0 0-1.389-.78 1.452 1.452 0 0 0-1.356.624c-.245.298-.367.55-.434.529ZM170.85 108.216a8.63 8.63 0 0 1-1.796-5.234c.101 0 .305 1.213.8 2.651.495 1.437 1.091 2.529.996 2.583ZM172.545 109.138a4.564 4.564 0 0 1-.935-1.756 4.739 4.739 0 0 1-.461-1.932 7.3 7.3 0 0 1 .793 1.81c.285.596.488 1.228.603 1.878ZM183.163 109.402a7.384 7.384 0 0 1-2.353 6.231 21.317 21.317 0 0 0 1.621-2.929c.333-1.078.578-2.183.732-3.302ZM184.858 106.602c.404.97.49 2.043.244 3.065a4.88 4.88 0 0 1-1.309 2.773c.404-.917.726-1.868.963-2.841.123-.994.157-1.997.102-2.997Z"/><path fill="#263238" d="m179.976 213.116 3.709 35.771 2.664 53.874h14.218l.387-114.663-40.708 2.909-8.434 60.158 7.309 52.647h15.594l-3.648-50.063 8.909-40.633Z"/><path fill="#455A64" d="M179.976 213.116a43.147 43.147 0 0 1-5.77 5.194 21.681 21.681 0 0 1 2.767-2.712 21.176 21.176 0 0 1 3.003-2.482ZM179.936 212.37a41.109 41.109 0 0 1 .074-4.59c0-1.531.089-3.062.265-4.583.173 1.526.203 3.065.088 4.597a24.057 24.057 0 0 1-.427 4.576ZM184.634 199.048a.992.992 0 0 1 .231 0l.678-.041 2.712-.129 9.641-.407h.163V208.96l-.116.041-6.271 2.515H191.557l-5.54-1.925h-.088v-.089c-.407-3.125-.746-5.729-.983-7.593-.108-.868-.19-1.566-.258-2.088a5.722 5.722 0 0 1-.067-.678c.02.066.036.134.047.203 0 .156.054.339.095.563.081.529.19 1.234.332 2.115.278 1.837.678 4.393 1.126 7.458l-.095-.115 5.553 1.885h-.116l6.265-2.529-.108.162v-10.197l.162.156-9.532.238-2.712.047h-1.004v-.081ZM164.125 199.224c.069-.01.14-.01.21 0l.63-.034 2.441-.075 8.814-.203h.109v.163l-.319 10.034v.095l-.075.047-1.017.678-5.152 3.39-.095.062-.088-.062-5.804-3.532-.075-.047v-.082c.109-3.119.204-5.715.265-7.58.04-.868.068-1.566.095-2.088.003-.227.019-.453.047-.678a.69.69 0 0 1 0 .203V202.2c0 1.838-.068 4.407-.115 7.492l-.068-.129 5.831 3.492h-.21l5.146-3.39 1.023-.678-.081.136c.129-3.641.258-7.065.366-10.035l.156.163-8.699.047h-3.132l-.203-.074ZM196.56 215.428a9.91 9.91 0 0 1-1.925-.061 91.185 91.185 0 0 1-4.624-.481c-1.797-.231-3.424-.495-4.59-.678a9.586 9.586 0 0 1-1.878-.434c.641.003 1.281.064 1.912.183l4.603.61 4.597.583c.642.04 1.279.133 1.905.278ZM196.228 255.301s-.054.21-.332.454a2.27 2.27 0 0 1-1.458.495 3.433 3.433 0 0 1-2.122-.813 14.718 14.718 0 0 1-1.939-1.96 26.817 26.817 0 0 1-2.875-4.068 8.712 8.712 0 0 1-.902-1.851c.4.555.771 1.13 1.112 1.723a35.918 35.918 0 0 0 2.936 3.952 15.968 15.968 0 0 0 1.871 1.933 3.288 3.288 0 0 0 1.926.82c.478.029.952-.095 1.356-.353.291-.183.4-.345.427-.332ZM168.152 256.562a.977.977 0 0 1-.19.455 3.05 3.05 0 0 1-.983.935 3.769 3.769 0 0 1-1.953.509 4.585 4.585 0 0 1-2.346-.746 8.274 8.274 0 0 1-2.827-3.39 7.382 7.382 0 0 1-.678-1.675c.346.496.655 1.017.922 1.56a8.944 8.944 0 0 0 2.794 3.186 4.41 4.41 0 0 0 2.169.719 3.722 3.722 0 0 0 1.824-.4c.498-.292.93-.684 1.268-1.153ZM169.06 251.166c-.343.3-.741.53-1.172.678a9.289 9.289 0 0 1-6.421.264 3.632 3.632 0 0 1-1.221-.583c1.436.456 2.935.684 4.441.678a14.93 14.93 0 0 0 4.373-1.037ZM215.327 124.908h-20.692s-2.821-1.62-4.184-1.356a5.366 5.366 0 0 0-2.542 1.729l2.746 22.835 6.712-4.97 24.991-2.596a7.97 7.97 0 0 0 5.709-2.502 7.956 7.956 0 0 0 2.108-6.394l-4.624-24.564-9.492.319-.372 6.231-.36 11.268ZM158.267 130.665a12.724 12.724 0 0 0-5.004 5.817c-1.214 2.902-9.492 17.397-13.818 24.977a7.177 7.177 0 0 0 1.038 8.523c2.644 2.759 5.803 1.681 9.661.427 1.729-.563 9.492-12.502 9.492-12.502l-1.369-27.242Z"/><path fill="#455A64" d="m161.874 182.457-4.753-40.89 1.146-10.902 12.095-5.153 15.676-1.031 14.916 1.648-3.485 41.941 3.817 23.655-41.792 1.885 2.38-11.153Z"/><path fill="#263238" d="M161.853 182.281c-.101 0-1.234-9.092-2.542-20.34-1.309-11.248-2.285-20.34-2.19-20.381.095-.041 1.234 9.099 2.542 20.34 1.309 11.241 2.285 20.367 2.19 20.381ZM200.649 135.302c.014.124.014.249 0 .373 0 .278-.061.624-.095 1.044-.102.963-.231 2.271-.394 3.858-.332 3.302-.779 7.777-1.274 12.726a526.368 526.368 0 0 0-1.105 12.733c-.116 1.593-.211 2.902-.278 3.864l-.082 1.051a2.244 2.244 0 0 1-.054.366 1.32 1.32 0 0 1 0-.366v-1.057c0-.916.081-2.238.163-3.872.183-3.268.529-7.783 1.003-12.753.475-4.97.983-9.492 1.356-12.719.204-1.627.373-2.936.509-3.845.061-.42.115-.766.156-1.044a1.36 1.36 0 0 1 .095-.359ZM193.462 176.016a7.804 7.804 0 0 1-.678.807c-.264.313-.547.61-.848.888-.352.325-.732.719-1.207 1.085-.501.427-1.026.825-1.573 1.193-.618.435-1.258.838-1.918 1.207a23.908 23.908 0 0 1-9.886 2.949c-.8.034-1.559.088-2.264.048a19.134 19.134 0 0 1-1.973-.136c-.597-.047-1.132-.169-1.607-.251a9.557 9.557 0 0 1-1.193-.278 5.792 5.792 0 0 1-.997-.312c0-.081 1.444.366 3.824.59.647.066 1.296.095 1.946.088.678.034 1.451-.034 2.237-.074a24.833 24.833 0 0 0 9.757-2.909c.678-.4 1.356-.752 1.912-1.159.556-.407 1.105-.78 1.573-1.146 1.884-1.492 2.834-2.644 2.895-2.59Z"/><path fill="#000" d="M171.366 183.65c-2.034-.583-2.15-2.502-1.356-3.322.793-.82 2.034-.929 3.193-.766 1.11.273 2.247.425 3.39.454 1.858-.122 3.39-1.417 4.705-2.759 1.316-1.343 2.516-2.848 4.211-3.621 1.695-.773 4.068-.495 4.949 1.139.253.537.367 1.129.332 1.721a3.548 3.548 0 0 1-.535 1.669 7.805 7.805 0 0 1-2.516 2.468 20.564 20.564 0 0 1-16.353 3.017" opacity=".3"/><path fill="#263238" d="M196.079 125.742a5.43 5.43 0 0 1 2.712 2.163 5.528 5.528 0 0 1 1.2 3.261 13.915 13.915 0 0 0-1.485-3.051 14.157 14.157 0 0 0-2.427-2.373Z"/><path fill="#FAFAFA" d="M194.635 125.281a2.083 2.083 0 0 0-.339-.203 1.775 1.775 0 0 0-1.126-.075 3.181 3.181 0 0 0-1.546.922 16.966 16.966 0 0 1-1.708 1.736c-.829.56-1.807.86-2.807.861-1.065.054-2.197-.054-3.39-.088a67.363 67.363 0 0 0-7.743.169 49.658 49.658 0 0 0-13.696 3.024 41.949 41.949 0 0 0-3.898 1.729l-1.024.543c-.237.122-.366.176-.366.176s.115-.075.353-.204l1.01-.562a41.232 41.232 0 0 1 3.885-1.777 48.834 48.834 0 0 1 13.723-3.071 65.808 65.808 0 0 1 7.756-.163c1.193.034 2.325.149 3.39.102a4.95 4.95 0 0 0 2.759-.827 19.142 19.142 0 0 0 1.709-1.709 3.093 3.093 0 0 1 1.586-.915 1.713 1.713 0 0 1 1.146.095c.123.058.233.138.326.237ZM199.326 133.661s-.142-.047-.42-.095a4.504 4.504 0 0 0-1.227-.04 6.808 6.808 0 0 0-1.871.501c-.789.348-1.557.742-2.299 1.18-.907.528-1.875.944-2.881 1.241-1.168.307-2.362.5-3.567.576-2.535.156-5.322.197-8.237.421a168.072 168.072 0 0 0-14.916 1.728c-1.899.306-3.39.59-4.475.787l-1.214.224-.427.074.42-.101 1.207-.251c1.051-.21 2.577-.516 4.468-.827 3.784-.678 9.045-1.356 14.916-1.77 2.923-.231 5.716-.264 8.245-.414a18.746 18.746 0 0 0 3.539-.562 12.772 12.772 0 0 0 2.868-1.214 21.12 21.12 0 0 1 2.319-1.166 6.73 6.73 0 0 1 1.898-.481 4.058 4.058 0 0 1 1.234.067c.145.023.286.064.42.122ZM199.428 145.187s-.529.251-1.505.631a43.637 43.637 0 0 1-4.21 1.403 63.103 63.103 0 0 1-14.476 2.163c-4.884.152-9.773.036-14.645-.346l-4.434-.345-1.2-.109c-.271 0-.42-.047-.42-.047h.42l1.207.081 4.434.298c4.869.356 9.752.457 14.631.305a64.78 64.78 0 0 0 14.455-2.115 52.992 52.992 0 0 0 4.224-1.356c.489-.176.868-.339 1.126-.434l.393-.129ZM197.842 158.496s-.495.217-1.411.529a28.158 28.158 0 0 1-3.973 1.017c-1.999.36-4.023.567-6.054.617-2.292.082-4.814 0-7.458-.149-5.275-.352-10.048-.725-13.506-.603a47.548 47.548 0 0 0-4.068.271c-.481.047-.854.108-1.105.136l-.387.047a34.4 34.4 0 0 1 5.574-.549c3.471-.149 8.251.21 13.526.556 2.63.156 5.146.237 7.458.162a41.629 41.629 0 0 0 6.041-.583 29.573 29.573 0 0 0 3.979-.976c.462-.136.807-.278 1.051-.352l.333-.123ZM196.553 168.795s-1.918.631-5.085 1.356a73.729 73.729 0 0 1-5.62 1.065 82.174 82.174 0 0 1-6.957.739c-2.481.162-4.847.156-6.996.108a66.543 66.543 0 0 1-5.702-.379c-3.235-.339-5.214-.739-5.214-.739l.366.04 1.037.149c.895.136 2.204.292 3.817.448 1.614.156 3.553.285 5.702.346 2.15.061 4.509 0 6.984-.116 2.474-.115 4.82-.42 6.949-.725a73.529 73.529 0 0 0 5.607-1.031c1.58-.352 2.868-.678 3.743-.908l1.01-.265.359-.088ZM197.984 172.558l-.353.136-1.017.366c-.888.325-2.149.841-3.688 1.519-1.539.678-3.39 1.532-5.424 2.379a35.34 35.34 0 0 1-6.929 2.122c-4.337.75-8.746 1-13.14.746a157.004 157.004 0 0 1-3.986-.217l-1.078-.081h-.38.38l1.084.054 3.987.17c4.384.234 8.78-.023 13.106-.766a36.01 36.01 0 0 0 6.909-2.095c2.034-.841 3.878-1.689 5.424-2.353 1.545-.665 2.82-1.173 3.708-1.485.888-.312 1.397-.495 1.397-.495ZM200.106 183.786s-.461.312-1.356.82a27.722 27.722 0 0 1-3.912 1.79 43.214 43.214 0 0 1-13.96 2.36c-5.553.101-10.57-.339-14.197-.495a197.387 197.387 0 0 0-4.299-.163h-1.58 1.58c1.017 0 2.488.041 4.305.122 3.628.122 8.645.549 14.184.447a43.724 43.724 0 0 0 13.933-2.311 28.218 28.218 0 0 0 3.899-1.784c.454-.223.786-.447 1.023-.569.238-.122.38-.217.38-.217ZM206.425 142.387a.642.642 0 0 1 .034-.169c.041-.15.081-.312.129-.482.115-.42.264-1.024.427-1.783a27.394 27.394 0 0 0-.183-11.96 25.801 25.801 0 0 0-.475-1.769l-.149-.475-.047-.163c.032.05.055.105.067.163.055.142.109.298.17.468.149.407.332 1.003.522 1.756a25.757 25.757 0 0 1 .183 12.007c-.169.76-.332 1.356-.468 1.777-.061.169-.108.325-.156.474a1.107 1.107 0 0 1-.054.156ZM216.466 139.933a.582.582 0 0 1 0-.156v-2.068a25.29 25.29 0 0 0-3.098-11.831l-.21-.393c-.05-.086-.07-.134-.061-.143.032.041.061.084.088.129l.23.38c.204.325.468.82.773 1.437a23.614 23.614 0 0 1 2.373 10.421c.005.543-.018 1.086-.068 1.627l-.047.448a.936.936 0 0 1 .02.149ZM230.033 135.221s-.047-.041-.129-.136l-.346-.4a27.45 27.45 0 0 0-1.295-1.458 32.842 32.842 0 0 0-10.4-7.458 28.542 28.542 0 0 0-1.804-.759l-.494-.19a.884.884 0 0 1-.17-.081.653.653 0 0 1 .183.054l.502.17c.441.142 1.064.386 1.824.718a30.908 30.908 0 0 1 10.434 7.458c.549.61.983 1.119 1.261 1.492.122.149.231.291.326.42.094.129.108.17.108.17ZM226.955 116.013a2.62 2.62 0 0 1-.434 0h-5.051c-1.519 0-2.882.081-3.872.136l-1.172.061c-.145.01-.29.01-.434 0 .142-.033.288-.053.434-.061.271 0 .678-.068 1.166-.109a70.43 70.43 0 0 1 3.878-.176c1.512-.027 2.888 0 3.878.041l1.18.067c.143.003.286.016.427.041ZM150.144 142.923c.096.078.182.167.258.264.149.183.386.434.678.739a17.533 17.533 0 0 0 2.536 2.109c.914.623 1.86 1.198 2.834 1.722l.881.481c.112.053.219.117.319.19a1.53 1.53 0 0 1-.339-.142 16.171 16.171 0 0 1-.909-.441 26.599 26.599 0 0 1-2.868-1.688 16.007 16.007 0 0 1-2.529-2.163 8.74 8.74 0 0 1-.678-.773 2.164 2.164 0 0 1-.183-.298ZM153.005 137.492s.156.237.475.549c.423.395.876.756 1.356 1.078.484.328.984.632 1.498.909.394.217.678.325.645.345a7.665 7.665 0 0 1-2.218-1.132 7.896 7.896 0 0 1-1.356-1.132 1.65 1.65 0 0 1-.4-.617ZM157.826 160.625s-.054 0-.149-.061l-.414-.217a20.437 20.437 0 0 1-1.464-.874 30.736 30.736 0 0 1-4.421-3.505 28.116 28.116 0 0 1-3.681-4.265 15.88 15.88 0 0 1-.909-1.451l-.224-.407c-.054-.095-.074-.142-.067-.149l.088.136.251.393c.203.346.522.834.942 1.417a30.85 30.85 0 0 0 3.702 4.224 32.736 32.736 0 0 0 4.373 3.519c.597.406 1.092.712 1.437.915l.4.237.136.088Z"/><path fill="#263238" d="M138.991 167.622a3.374 3.374 0 0 1-.129-.779 12.89 12.89 0 0 1-.047-2.143c.165-2.378.94-4.673 2.251-6.665a423.958 423.958 0 0 1 3.776-5.946l1.18-1.776c.137-.226.296-.437.475-.631a3.387 3.387 0 0 1-.36.678l-1.084 1.838a490.078 490.078 0 0 1-3.682 5.993 14.37 14.37 0 0 0-2.305 6.502c-.156 1.817-.027 2.929-.075 2.929Z"/><path fill="#FAFAFA" d="M150.856 170.375a8.672 8.672 0 0 1-2.346-.353 11.002 11.002 0 0 1-7.763-7.763 8.813 8.813 0 0 1-.346-2.339.557.557 0 0 1 0 .163c0 .102 0 .264.061.468.078.568.199 1.13.36 1.681a11.125 11.125 0 0 0 7.709 7.696c.553.16 1.117.28 1.688.359.203 0 .359.041.468.061l.169.027ZM144.049 147.228a.498.498 0 0 1-.122.081l-.353.217c-.434.256-.855.535-1.261.834a17.981 17.981 0 0 0-6.156 7.736c-.244.59-.427 1.072-.529 1.417-.047.136-.095.265-.135.394-.041.128-.048.128-.055.128a.674.674 0 0 1 0-.142c.034-.122.068-.258.109-.4.136-.489.301-.968.495-1.437a17.574 17.574 0 0 1 2.515-4.333 17.345 17.345 0 0 1 3.668-3.39c.415-.293.847-.561 1.295-.8l.366-.19c.116-.101.156-.122.163-.115ZM140.245 142.211l-.386.136a12.165 12.165 0 0 0-4.156 2.264 17.672 17.672 0 0 0-2.522 2.644c-.292.366-.522.678-.678.882a2.8 2.8 0 0 1-.258.318c.061-.123.131-.241.21-.352.143-.217.36-.536.638-.909a15.508 15.508 0 0 1 2.515-2.712 11.126 11.126 0 0 1 3.166-1.871 9.908 9.908 0 0 1 1.065-.339c.133-.032.269-.052.406-.061Z"/></svg>